<svg width="11" height="12" viewBox="0 0 11 12" fill="none" xmlns="http://www.w3.org/2000/svg">
<g id="maps-and-flags (2) 1" clip-path="url(#clip0_1_15796)">
<g id="Group">
<g id="Group_2">
<path id="Vector" d="M5.49941 0.280273C3.30274 0.280273 1.51562 2.06522 1.51562 4.2592C1.51562 6.982 5.08072 10.9792 5.23251 11.1481C5.37508 11.3067 5.624 11.3064 5.76631 11.1481C5.9181 10.9792 9.48319 6.982 9.48319 4.2592C9.48315 2.06522 7.69606 0.280273 5.49941 0.280273ZM5.49941 6.26111C4.39421 6.26111 3.49509 5.36306 3.49509 4.2592C3.49509 3.15534 4.39423 2.25731 5.49941 2.25731C6.60459 2.25731 7.50371 3.15536 7.50371 4.25922C7.50371 5.36308 6.60459 6.26111 5.49941 6.26111Z" fill="white"/>
</g>
</g>
</g>
<defs>
<clipPath id="clip0_1_15796">
<rect width="11" height="10.9866" fill="white" transform="translate(0 0.280273)"/>
</clipPath>
</defs>
</svg>
