<svg width="23" height="21" viewBox="0 0 23 21" fill="none" xmlns="http://www.w3.org/2000/svg">
<g id="Icon">
<path fill-rule="evenodd" clip-rule="evenodd" d="M20.8475 2.07672C21.1732 1.7511 21.1732 1.22316 20.8475 0.897538C20.5219 0.571914 19.994 0.571914 19.6683 0.897538L1.88038 18.6855C1.55476 19.0111 1.55476 19.5391 1.88038 19.8647C2.206 20.1903 2.73394 20.1903 3.05957 19.8647L6.2246 16.6997C7.74359 17.4147 9.49309 17.8854 11.364 17.8854C14.3479 17.8854 17.0231 16.688 18.9467 15.2116C19.9104 14.472 20.7062 13.6469 21.2684 12.8368C21.8151 12.0491 22.2035 11.1846 22.2035 10.3811C22.2035 9.57765 21.8151 8.71317 21.2684 7.92543C20.7062 7.11529 19.9104 6.2902 18.9467 5.55061C18.6553 5.32694 18.3466 5.10968 18.0223 4.90201L20.8475 2.07672ZM16.811 6.11326L14.8423 8.08197C15.2788 8.74104 15.533 9.53139 15.533 10.3811C15.533 12.6836 13.6665 14.5502 11.364 14.5502C10.5142 14.5502 9.72389 14.296 9.06481 13.8594L7.48978 15.4345C8.67438 15.9171 9.98774 16.2178 11.364 16.2178C13.906 16.2178 16.2337 15.1917 17.9314 13.8887C18.7785 13.2386 19.448 12.5351 19.8984 11.886C20.3643 11.2146 20.5359 10.6894 20.5359 10.3811C20.5359 10.0728 20.3643 9.54762 19.8984 8.8762C19.448 8.22716 18.7785 7.52361 17.9314 6.87351C17.5832 6.60629 17.2086 6.35072 16.811 6.11326ZM10.2855 12.6388C10.612 12.795 10.9778 12.8825 11.364 12.8825C12.7455 12.8825 13.8654 11.7626 13.8654 10.3811C13.8654 9.99494 13.7779 9.6292 13.6216 9.30265L10.2855 12.6388Z" fill="#6C5FBC"/>
<path d="M11.364 2.87682C12.5117 2.87682 13.6137 3.05396 14.6449 3.356C14.8433 3.4141 14.9023 3.6624 14.7562 3.80857L13.8395 4.72527C13.7707 4.79403 13.6711 4.82158 13.5763 4.79977C12.8655 4.63623 12.1243 4.54444 11.364 4.54444C8.82189 4.54444 6.49426 5.57049 4.7965 6.87351C3.94946 7.52361 3.27996 8.22716 2.82954 8.8762C2.36359 9.54762 2.19204 10.0728 2.19204 10.3811C2.19204 10.6894 2.36359 11.2146 2.82954 11.886C3.22291 12.4529 3.78337 13.0613 4.48325 13.6393C4.61205 13.7457 4.62433 13.9404 4.5062 14.0585L3.71807 14.8467C3.61767 14.9471 3.45747 14.9559 3.34867 14.8646C2.57825 14.2186 1.93525 13.5223 1.45951 12.8368C0.912826 12.0491 0.524414 11.1846 0.524414 10.3811C0.524414 9.57765 0.912826 8.71317 1.45951 7.92543C2.02172 7.11529 2.81753 6.2902 3.78117 5.55061C5.70477 4.07426 8.38001 2.87682 11.364 2.87682Z" fill="#6C5FBC"/>
<path d="M11.364 6.21206C11.4957 6.21206 11.6259 6.21817 11.7545 6.23011C11.9734 6.25045 12.0526 6.51213 11.8972 6.66755L10.5495 8.01528C9.82316 8.26527 9.24811 8.84032 8.99812 9.56663L7.65039 10.9144C7.49497 11.0698 7.23329 10.9906 7.21296 10.7717C7.20101 10.6431 7.1949 10.5128 7.1949 10.3811C7.1949 8.07861 9.06145 6.21206 11.364 6.21206Z" fill="#6C5FBC"/>
</g>
</svg>
