<svg width="23" height="19" viewBox="0 0 23 19" fill="none" xmlns="http://www.w3.org/2000/svg">
<g id="Email">
<g id="Icon">
<path d="M5.83311 0.959771C9.69474 0.624087 13.5782 0.624087 17.4398 0.959771L19.3003 1.1215C20.5389 1.22916 21.5996 1.96791 22.1493 3.02462C22.2196 3.15981 22.1669 3.32349 22.0373 3.40369L14.3181 8.18223C12.6626 9.20709 10.5751 9.22859 8.89879 8.23805L1.12804 3.64624C1.00249 3.57205 0.944865 3.41934 1.00144 3.28494C1.50426 2.09051 2.63471 1.2378 3.97262 1.1215L5.83311 0.959771Z" fill="#6C5FBC"/>
<path d="M0.995121 5.71409C0.802986 5.60055 0.557829 5.72273 0.535433 5.94478C0.222851 9.04384 0.298504 12.1722 0.762394 15.2571C1.00695 16.8834 2.33423 18.1301 3.97262 18.2726L5.83311 18.4343C9.69474 18.77 13.5782 18.77 17.4399 18.4343L19.3003 18.2726C20.9387 18.1301 22.266 16.8834 22.5106 15.2571C22.988 12.0823 23.0542 8.86147 22.7092 5.67392C22.685 5.45031 22.4357 5.33038 22.2444 5.44877L15.2908 9.75342C13.0509 11.14 10.2267 11.1691 7.95872 9.82894L0.995121 5.71409Z" fill="#6C5FBC"/>
</g>
</g>
</svg>
