<svg width="15" height="15" viewBox="0 0 15 15" fill="none" xmlns="http://www.w3.org/2000/svg">
<path d="M0.9375 7.7002V13.3252C0.9375 13.8427 1.35844 14.2627 1.875 14.2627H6.5625V7.7002H0.9375Z" fill="white"/>
<path d="M14.0625 3.9507H11.0963C11.3091 3.80539 11.4919 3.66102 11.6194 3.53164C12.3759 2.77133 12.3759 1.53383 11.6194 0.773516C10.8844 0.0328909 9.60375 0.0347659 8.86969 0.773516C8.46281 1.18133 7.38469 2.84164 7.53375 3.9507H7.46625C7.61438 2.84164 6.53625 1.18133 6.13031 0.773516C5.39531 0.0347659 4.11469 0.0347659 3.38063 0.773516C2.625 1.53383 2.625 2.77133 3.37969 3.53164C3.50813 3.66102 3.69094 3.80539 3.90375 3.9507H0.9375C0.420938 3.9507 0 4.37164 0 4.8882V6.29445C0 6.5532 0.21 6.7632 0.46875 6.7632H6.5625V4.8882H8.4375V6.7632H14.5312C14.79 6.7632 15 6.5532 15 6.29445V4.8882C15 4.37164 14.58 3.9507 14.0625 3.9507ZM6.50719 3.91977C6.50719 3.91977 6.46781 3.9507 6.33375 3.9507C5.68594 3.9507 4.44938 3.27758 4.04531 2.8707C3.6525 2.47508 3.6525 1.83008 4.04531 1.43445C4.23563 1.2432 4.48781 1.1382 4.75594 1.1382C5.02313 1.1382 5.27531 1.2432 5.46562 1.43445C6.0975 2.07008 6.72563 3.69383 6.50719 3.91977ZM8.66531 3.9507C8.53219 3.9507 8.49281 3.9207 8.49281 3.91977C8.27437 3.69383 8.9025 2.07008 9.53438 1.43445C9.91219 1.05289 10.5731 1.05102 10.9547 1.43445C11.3484 1.83008 11.3484 2.47508 10.9547 2.8707C10.5506 3.27758 9.31406 3.9507 8.66531 3.9507Z" fill="white"/>
<path d="M8.4375 7.7002V14.2627H13.125C13.6425 14.2627 14.0625 13.8427 14.0625 13.3252V7.7002H8.4375Z" fill="white"/>
</svg>
