<svg width="203" height="28" viewBox="0 0 203 28" fill="none" xmlns="http://www.w3.org/2000/svg">
<g id="Group 3336">
<path id="svg 1" d="M58.0781 27.7882H63.6523V5.37012H70.7354V0.0078125H58.0781V27.7882Z" fill="#990032"/>
<path id="svg 2" d="M125.438 5.37012H131.004V27.7882H136.579V5.37012H142.153V0.0078125H125.438V5.37012Z" fill="#990032"/>
<path id="svg 3" d="M0 0.0078125V27.7957H5.44967V20.7361H12.5401L16.642 16.7181V4.02579L12.7232 0.0078125H0ZM11.0751 15.3813H5.44967V5.37012H11.0751V15.3813Z" fill="#990032"/>
<path id="svg 4" d="M23.7449 0.0078125L19.8262 4.02579V23.7777L23.7449 27.7957H33.5822L37.5083 23.7777V4.02579L33.5822 0.0078125H23.7449ZM31.9268 22.4259H25.393V5.37012H31.9268V22.4259Z" fill="#990032"/>
<path id="svg 5" d="M46.6098 5.37012H54.5133V0.0078125H44.9544L41.043 4.02579V23.7702L44.9544 27.7957H54.5573V22.4259H46.6098V5.37012Z" fill="#990032"/>
<path id="svg 6" d="M76.3446 0.0078125L72.4258 4.02579V23.7777L76.3446 27.7957H86.1818L90.1079 23.7777V4.02579L86.1818 0.0078125H76.3446ZM84.5337 22.4259H78V5.37012H84.5337V22.4259Z" fill="#990032"/>
<path id="svg 7" d="M145.053 0.0078125V27.7957H150.502V20.7361H157.593L161.702 16.7181V4.02579L157.783 0.0078125H145.053ZM156.121 15.3813H150.495V5.37012H156.121V15.3813Z" fill="#990032"/>
<path id="svg 8" d="M99.2129 5.37012H107.109V0.0078125H97.5575L93.6387 4.02579V23.7702L97.5575 27.7957H107.153V22.4259H99.2129V5.37012Z" fill="#990032"/>
<path id="svg 9" d="M115.41 5.37012H123.306V0.0078125H113.755L109.836 4.02579V23.7702L113.755 27.7957H123.35V22.4259H115.41V5.37012Z" fill="#990032"/>
<path id="svg 10" d="M198.986 13.5488L202.948 0.0078125H197.359L194.349 10.4996H193.345L190.328 0.0078125H184.739L188.716 13.6013L184.688 27.7882H190.196L193.397 16.8307H194.29L197.499 27.7882H203L198.986 13.5488Z" fill="#990032"/>
<path id="svg 11" d="M177.831 27.7879H183.442L177.853 0H168.331L162.742 27.7879H168.17L169.437 21.1638H176.535L177.831 27.7879ZM170.463 15.9442L172.484 5.3623H173.546L175.568 15.9442H170.463Z" fill="#990032"/>
</g>
</svg>
