<svg width="76" height="12" viewBox="0 0 76 12" fill="none" xmlns="http://www.w3.org/2000/svg">
<g id="SB RUS RGB">
<path id="Path" d="M33.5864 3.44773L35.1539 2.29102H29.9062V9.21995H35.1539V8.06324H31.4056V6.29415H34.6087V5.13744H31.4056V3.44773H33.5864Z" fill="#21A038"/>
<path id="Shape" d="M25.9417 4.99001H24.1243V3.44773H27.0321L28.5996 2.29102H22.625V9.21995H25.7486C27.4978 9.21995 28.5087 8.42613 28.5087 7.04261C28.5087 5.71579 27.6 4.99001 25.9417 4.99001ZM25.6918 8.06324H24.1243V6.14672H25.6918C26.6459 6.14672 27.0889 6.46425 27.0889 7.11065C27.0889 7.75705 26.6118 8.06324 25.6918 8.06324Z" fill="#21A038"/>
<path id="Shape_2" d="M39.4018 2.29102H36.5508V9.21995H38.0501V7.25808H39.4131C41.2305 7.25808 42.3663 6.30549 42.3663 4.77455C42.3663 3.2436 41.2305 2.29102 39.4018 2.29102ZM39.3677 6.10136H38.0387V3.44773H39.3677C40.3332 3.44773 40.8557 3.92402 40.8557 4.77455C40.8557 5.62507 40.3332 6.10136 39.3677 6.10136Z" fill="#21A038"/>
<path id="Path_2" d="M20.0598 7.72293C19.6622 7.9384 19.2192 8.0518 18.7649 8.0518C17.4132 8.0518 16.4364 7.08787 16.4364 5.76106C16.4364 4.43424 17.4132 3.47031 18.7649 3.47031C19.2533 3.45897 19.7304 3.61774 20.1279 3.90124L21.207 3.10742L21.1388 3.03938C20.5141 2.4837 19.6736 2.2002 18.7195 2.2002C17.6858 2.2002 16.7431 2.55175 16.0616 3.1868C15.38 3.84454 14.9939 4.76311 15.0166 5.7157C15.0052 6.67962 15.38 7.60953 16.0616 8.28995C16.7771 8.95903 17.7313 9.33326 18.7081 9.31058C19.7872 9.31058 20.7299 8.93635 21.366 8.25593L20.4005 7.54149L20.0598 7.72293Z" fill="#21A038"/>
<path id="Shape_3" d="M60.3949 2.30236V9.23129H61.8942V6.39621H65.086V9.23129H66.5853V2.30236H65.086V5.14878H61.8942V2.30236H60.3949ZM57.8165 9.23129H59.3954L56.4649 2.30236H54.9428L51.9555 9.23129H53.4662L54.0682 7.83643H57.2486L57.8165 9.23129ZM54.5226 6.67972L55.6811 3.90134L56.7716 6.67972H54.5226ZM69.9474 6.43023H70.8788L73.1733 9.21995H75.1042L72.0374 5.63641L74.718 2.29102H73.0029L70.7766 5.26218H69.9474V2.29102H68.4481V9.21995H69.9474V6.43023ZM47.0032 5.00135V3.45907H50.9219V2.30236H45.5039V9.23129H48.6275C50.3767 9.23129 51.3876 8.43747 51.3876 7.05395C51.3876 5.72713 50.4789 5.00135 48.8206 5.00135H47.0032ZM47.0032 8.07458V6.15806H48.5707C49.5248 6.15806 49.9678 6.47559 49.9678 7.12199C49.9678 7.76839 49.5021 8.08592 48.5707 8.08592H47.0032V8.07458Z" fill="#21A038"/>
<g id="Group">
<path id="Path_3" d="M10.3247 2.24512C10.5973 2.59667 10.8245 2.98224 11.0176 3.39049L5.76996 7.25754L3.56641 5.87402V4.21833L5.7586 5.59051L10.3247 2.24512Z" fill="#21A038"/>
<g id="Path_4">
<path id="Vector" d="M1.32895 5.75969C1.32895 5.68031 1.32895 5.61227 1.34031 5.53289L0.0113585 5.46484C0.0113585 5.55557 0 5.65763 0 5.74835C0 7.336 0.647436 8.77622 1.69242 9.81953L2.63518 8.87828C1.82872 8.08446 1.32895 6.98445 1.32895 5.75969Z" fill="url(#paint0_linear_1_13611)"/>
<path id="Vector_2" d="M5.75776 1.33756C5.83727 1.33756 5.90542 1.33756 5.98493 1.3489L6.05308 0.0220825C5.96221 0.0220825 5.85998 0.0107422 5.76912 0.0107422C4.17892 0.0107422 2.73639 0.65714 1.69141 1.70045L2.63416 2.6417C3.42926 1.83653 4.5424 1.33756 5.75776 1.33756Z" fill="url(#paint1_linear_1_13611)"/>
<path id="Vector_3" d="M5.76017 10.183C5.68066 10.183 5.6125 10.183 5.53299 10.1717L5.46484 11.4985C5.55571 11.4985 5.65794 11.5099 5.74881 11.5099C7.339 11.5099 8.78153 10.8635 9.82652 9.82015L8.88376 8.87891C8.08866 9.69541 6.98689 10.183 5.76017 10.183Z" fill="url(#paint2_linear_1_13611)"/>
</g>
<g id="Path_5">
<path id="Vector_4" d="M8.25669 2.1093L9.38118 1.28146C8.39299 0.487634 7.13219 0 5.75781 0V1.32682C6.68921 1.33816 7.55246 1.62167 8.25669 2.1093Z" fill="url(#paint3_linear_1_13611)"/>
<path id="Vector_5" d="M11.5286 5.76146C11.5286 5.40991 11.4945 5.0697 11.4377 4.72949L10.1996 5.64806C10.1996 5.68208 10.1996 5.72744 10.1996 5.76146C10.1996 7.0656 9.6317 8.23365 8.73438 9.03881L9.6317 10.0254C10.7903 8.98211 11.5286 7.45117 11.5286 5.76146Z" fill="#21A038"/>
<path id="Vector_6" d="M5.75909 10.1836C4.45286 10.1836 3.28293 9.61659 2.47647 8.7207L1.48828 9.61659C2.54462 10.7846 4.06667 11.5104 5.75909 11.5104V10.1836Z" fill="url(#paint4_linear_1_13611)"/>
<path id="Vector_7" d="M2.7942 2.48368L1.89687 1.49707C0.726945 2.55172 0 4.07132 0 5.76103H1.32895C1.32895 4.46823 1.89687 3.28884 2.7942 2.48368Z" fill="url(#paint5_linear_1_13611)"/>
</g>
</g>
</g>
<defs>
<linearGradient id="paint0_linear_1_13611" x1="1.55495" y1="9.6581" x2="0.198624" y2="5.7438" gradientUnits="userSpaceOnUse">
<stop offset="0.1444" stop-color="#F2E913"/>
<stop offset="0.3037" stop-color="#E7E518"/>
<stop offset="0.5823" stop-color="#CADB26"/>
<stop offset="0.891" stop-color="#A3CD39"/>
</linearGradient>
<linearGradient id="paint1_linear_1_13611" x1="2.07022" y1="1.54662" x2="5.51671" y2="0.235331" gradientUnits="userSpaceOnUse">
<stop offset="0.0592" stop-color="#0FA8E0"/>
<stop offset="0.5385" stop-color="#0099F9"/>
<stop offset="0.9234" stop-color="#0291EB"/>
</linearGradient>
<linearGradient id="paint2_linear_1_13611" x1="5.38681" y1="10.3781" x2="9.4945" y2="9.45115" gradientUnits="userSpaceOnUse">
<stop offset="0.1226" stop-color="#A3CD39"/>
<stop offset="0.2846" stop-color="#86C339"/>
<stop offset="0.8693" stop-color="#21A038"/>
</linearGradient>
<linearGradient id="paint3_linear_1_13611" x1="5.48476" y1="0.848923" x2="8.90081" y2="1.90124" gradientUnits="userSpaceOnUse">
<stop offset="0.0566" stop-color="#0291EB"/>
<stop offset="0.79" stop-color="#0C8ACB"/>
</linearGradient>
<linearGradient id="paint4_linear_1_13611" x1="1.82619" y1="9.8321" x2="5.49435" y2="11.2004" gradientUnits="userSpaceOnUse">
<stop offset="0.1324" stop-color="#F2E913"/>
<stop offset="0.2977" stop-color="#EBE716"/>
<stop offset="0.5306" stop-color="#D9E01F"/>
<stop offset="0.8023" stop-color="#BBD62D"/>
<stop offset="0.9829" stop-color="#A3CD39"/>
</linearGradient>
<linearGradient id="paint5_linear_1_13611" x1="1.0112" y1="5.92129" x2="2.47788" y2="2.11205" gradientUnits="userSpaceOnUse">
<stop offset="0.0698" stop-color="#A3CD39"/>
<stop offset="0.2599" stop-color="#81C55F"/>
<stop offset="0.9216" stop-color="#0FA8E0"/>
</linearGradient>
</defs>
</svg>
