<svg width="98" height="79" viewBox="0 0 98 79" fill="none" xmlns="http://www.w3.org/2000/svg">
<g id="Frame" clip-path="url(#clip0_1_12213)">
<g id="Group">
<path id="Vector" d="M69.4965 29.3095C70.8559 29.2682 71.9643 28.152 71.9643 26.7878C71.9643 25.4029 70.8141 24.2661 69.4129 24.2661H68.1999C67.8862 24.2661 67.5934 24.3281 67.3215 24.4315L66.5477 21.9924C66.0667 20.4835 64.6655 19.4707 63.0761 19.4707H48.0394C47.0565 19.4707 46.1363 19.8428 45.4462 20.5249L45.4043 20.5662L45.3834 20.6075C44.8606 21.331 44.526 22.0751 44.526 22.1164L44.5051 22.1371L43.8149 24.2868H40.9498L40.8871 24.3074C39.5277 24.5968 39.1722 25.7337 39.1722 26.3537C39.1512 26.5191 39.1303 26.6638 39.1303 26.8292C39.1303 28.1934 40.2387 29.3095 41.5981 29.3509C40.908 30.467 40.3015 31.6866 39.9878 33.0714H32.3335C30.7232 33.0714 29.3429 34.0842 28.8619 35.5931L28.0881 38.0322C27.8162 37.9288 27.5025 37.8668 27.2097 37.8668H25.9967C24.5955 37.8668 23.4453 39.0037 23.4453 40.3885C23.4453 41.7527 24.5328 42.8482 25.9131 42.9103L25.7667 43.1376C24.6374 44.8739 24.0518 46.8582 24.0518 48.9252V56.0769C24.0518 57.3791 25.1184 58.4333 26.4359 58.4333H27.8371C29.1547 58.4333 30.2212 57.3791 30.2212 56.0769V54.1339H49.5034V56.0769C49.5034 57.3791 50.5699 58.4333 51.8875 58.4333H53.2887C54.6062 58.4333 55.6728 57.3791 55.6728 56.0769L55.6937 48.9045C55.6937 48.1604 55.1081 47.5816 54.3134 47.5816C53.5396 47.5816 52.975 48.1397 52.975 48.9045V48.9665C52.4103 48.0157 51.3646 47.3749 50.1935 47.3749C47.5793 47.3749 45.1952 48.9045 44.1495 51.2815L44.0868 51.4262H35.6587L35.596 51.2815C34.5503 48.9045 32.1662 47.3749 29.552 47.3749C28.3809 47.3749 27.3352 48.0157 26.7705 48.9665V48.9045C26.7705 47.3749 27.2097 45.866 28.0463 44.5638L29.1337 42.8896H50.6118C50.7163 43.0343 50.8209 43.1996 50.9045 43.3443C51.3856 44.0678 51.8875 44.8119 52.243 45.5767C52.4731 46.0521 52.9122 46.3414 53.4351 46.3414C53.9161 46.3414 54.3971 46.0934 54.648 45.7007C54.8781 45.3286 54.9199 44.8739 54.7108 44.4605C54.4598 43.9024 54.1461 43.3857 53.8324 42.8896C54.5644 42.8689 55.2336 42.5175 55.7146 41.9388C56.0492 41.5254 56.2375 41.05 56.2793 40.5332H65.2093V42.4762C65.2093 43.7784 66.2759 44.8325 67.5934 44.8325H68.9946C70.3121 44.8325 71.3787 43.7784 71.3787 42.4762L71.3996 35.3038C71.3996 33.2575 70.8141 31.2525 69.6847 29.5162L69.4965 29.3095ZM47.1192 22.7985C47.1401 22.7365 47.1611 22.6745 47.2029 22.5918C47.3702 22.3231 47.663 22.1578 47.9976 22.1578H63.0343C63.4317 22.1578 63.7872 22.4058 63.9127 22.7985L65.1256 26.6225H45.8853L47.1192 22.7985ZM68.6182 40.5332V42.1455H67.8862V40.5332H68.6182ZM31.4133 36.3579C31.5388 35.9652 31.8943 35.7172 32.2917 35.7172H47.3284C47.7257 35.7172 48.0812 35.9652 48.2067 36.3579L49.4197 40.1818H30.1794L31.4133 36.3579ZM47.3493 33.0301H42.7902C43.1875 31.7899 43.8986 30.7151 44.6515 29.5576C44.7142 29.4749 44.756 29.3922 44.8188 29.3095H66.2968L67.3843 30.9838C68.2208 32.286 68.66 33.7742 68.66 35.3244V35.3864C68.0953 34.4356 67.0497 33.7949 65.8785 33.7949C63.2643 33.7949 60.8802 35.3244 59.8346 37.7015L59.7718 37.8462H51.5738L50.8209 35.5518C50.3399 34.0429 48.9387 33.0301 47.3493 33.0301ZM65.8576 36.4819C66.1295 36.4819 66.3595 36.6886 66.3595 36.9573L66.3804 37.8255H62.9088C63.6199 36.9987 64.7074 36.4819 65.8576 36.4819ZM50.1517 50.0413C50.4235 50.0413 50.6536 50.248 50.6536 50.5167L50.6745 51.3849H47.2029C47.9139 50.5581 49.0014 50.0413 50.1517 50.0413ZM52.1803 55.7049V54.0926H52.9122V55.7049H52.1803ZM26.7078 55.7049V54.0926H27.4398V55.7049H26.7078ZM29.4893 50.0413C30.6395 50.0413 31.727 50.5581 32.4381 51.4055H28.9664L28.9874 50.5374C29.0083 50.2687 29.2174 50.0413 29.4893 50.0413Z" fill="#CA0100"/>
<path id="Vector_2" d="M87.4586 43.1991C87.0613 43.1991 86.6848 43.0544 86.4129 42.765L77.3575 33.815C76.8137 33.2569 76.8137 32.3474 77.3784 31.7687C77.6502 31.5 78.0267 31.3346 78.424 31.3346C78.8005 31.3346 79.1769 31.4793 79.4488 31.748L85.9947 38.2177L85.7855 36.068C84.3425 20.4623 72.9866 7.52299 57.5107 3.90578C54.7083 3.24434 51.8432 2.91363 48.978 2.91363C36.1372 2.91363 24.4048 9.34194 17.608 20.1316C17.3361 20.5656 16.8551 20.8344 16.3532 20.8344H16.3114C15.7885 20.8137 15.3075 20.5243 15.0566 20.0489C14.8056 19.5942 14.8265 19.0154 15.1193 18.5813C18.7373 12.8558 23.7774 8.12242 29.7586 4.87726C35.6353 1.67344 42.3067 -0.0214844 48.9989 -0.0214844C52.2196 -0.0214844 55.4193 0.371242 58.5563 1.13602C66.7753 3.141 74.0322 7.585 79.4906 13.972C84.949 20.3589 88.1697 28.1721 88.7971 36.5227L88.9225 38.2177L95.4893 31.7273C95.7612 31.4586 96.1377 31.2933 96.535 31.2933C96.9324 31.2933 97.3088 31.438 97.5807 31.7273C97.8526 31.996 98.0199 32.3681 98.0199 32.7608C98.0199 33.1536 97.8735 33.5256 97.5807 33.7943L88.5252 42.7443C88.2324 43.0337 87.856 43.1991 87.4586 43.1991Z" fill="#262626"/>
<path id="Vector_3" d="M48.9791 78.9988C45.7585 78.9988 42.5588 78.606 39.4217 77.8412C31.2028 75.8363 23.9459 71.3923 18.4875 65.0053C13.0291 58.5976 9.80843 50.8051 9.18103 42.4545L9.05555 40.7596L2.48876 47.2499C2.21688 47.4979 1.86136 47.6426 1.464 47.6426C1.06665 47.6426 0.690208 47.4979 0.418334 47.2086C-0.146327 46.6505 -0.146326 45.741 0.397421 45.1623L9.43199 36.2329C9.70387 35.9642 10.0803 35.7988 10.4777 35.7988C10.875 35.7988 11.2515 35.9435 11.5233 36.2329L20.5788 45.1829C21.1226 45.741 21.1226 46.6505 20.5579 47.2292C20.286 47.4979 19.9096 47.6633 19.5122 47.6633C19.1358 47.6633 18.7593 47.5186 18.4875 47.2499L11.9416 40.7803L12.1507 42.9299C13.6147 58.5563 24.9915 71.4956 40.4465 75.1128C43.2489 75.7743 46.114 76.105 48.9582 76.105C61.799 76.105 73.5314 69.6767 80.3283 58.887C80.6002 58.453 81.0602 58.2049 81.5831 58.2049C81.855 58.2049 82.1268 58.2876 82.3569 58.4323C83.047 58.8664 83.2561 59.7551 82.817 60.4373C79.2199 66.1628 74.1588 70.8962 68.1985 74.1413C62.3428 77.3038 55.6923 78.9988 48.9791 78.9988Z" fill="#262626"/>
</g>
</g>
<defs>
<clipPath id="clip0_1_12213">
<rect width="98" height="79" fill="white"/>
</clipPath>
</defs>
</svg>
