<svg width="57" height="75" viewBox="0 0 57 75" fill="none" xmlns="http://www.w3.org/2000/svg">
<g id="outline 3">
<path id="Vector" d="M52.0435 72.9383V69.3913H55.7609C56.4424 69.3913 57 68.8337 57 68.1522V1.40951C57 0.727989 56.4424 0.17038 55.7609 0.17038L6.19565 0C5.51413 0 4.95652 0.557609 4.95652 1.23913V4.95652H1.23913C0.557609 4.95652 0 5.51413 0 6.19565V72.9383C0 73.6198 0.557609 74.1774 1.23913 74.1774H50.8043C51.4859 74.1774 52.0435 73.6198 52.0435 72.9383ZM7.43478 2.47826L54.5217 2.64864V66.913H52.0435V18.587C52.0435 18.5715 52.0435 18.556 52.0435 18.5405C52.0435 18.525 52.0435 18.5095 52.0435 18.494C52.0435 18.4476 52.028 18.3856 52.028 18.3391C52.0125 18.2927 51.997 18.2307 51.9815 18.1842C51.9815 18.1687 51.966 18.1533 51.966 18.1533C51.9505 18.1068 51.9351 18.0603 51.9041 18.0139C51.9041 18.0139 51.9041 18.0139 51.9041 17.9984C51.8731 17.9519 51.8576 17.9054 51.8111 17.859C51.7957 17.8435 51.7956 17.8435 51.7802 17.828C51.7492 17.7815 51.7182 17.7351 51.6717 17.7041L39.2804 5.31277C39.234 5.28179 39.203 5.23533 39.1565 5.20435C39.141 5.18886 39.141 5.18886 39.1255 5.17337C39.0791 5.14239 39.0326 5.11141 38.9861 5.08043C38.9861 5.08043 38.9861 5.08043 38.9706 5.08043C38.9242 5.06494 38.8777 5.03397 38.8312 5.01848C38.8158 5.01848 38.8003 5.00299 38.7848 5.00299C38.7383 4.9875 38.6764 4.97201 38.6299 4.95652C38.5834 4.94103 38.5215 4.94103 38.475 4.94103C38.4595 4.94103 38.444 4.94103 38.4285 4.94103C38.413 4.94103 38.3976 4.94103 38.3821 4.94103H7.43478V2.47826ZM47.8149 17.3478H39.6522V9.18505L47.8149 17.3478ZM49.5652 71.6992H2.47826V7.43478H37.1739V18.587C37.1739 19.2685 37.7315 19.8261 38.413 19.8261H49.5652V71.6992Z" fill="#262626"/>
<path id="Vector_2" d="M29.7371 42.1298C29.7371 41.4482 29.1795 40.8906 28.498 40.8906H9.91101C9.22948 40.8906 8.67188 41.4482 8.67188 42.1298C8.67188 42.8113 9.22948 43.3689 9.91101 43.3689H28.498C29.1795 43.3689 29.7371 42.8113 29.7371 42.1298Z" fill="#262626"/>
<path id="Vector_3" d="M16.1089 47.0879H12.3915C11.71 47.0879 11.1523 47.6455 11.1523 48.327C11.1523 49.0085 11.71 49.5662 12.3915 49.5662H16.1089C16.7904 49.5662 17.348 49.0085 17.348 48.327C17.348 47.6455 16.7904 47.0879 16.1089 47.0879Z" fill="#262626"/>
<path id="Vector_4" d="M21.0673 47.0879C20.3857 47.0879 19.8281 47.6455 19.8281 48.327C19.8281 49.0085 20.3857 49.5662 21.0673 49.5662H22.3064C22.9879 49.5662 23.5455 49.0085 23.5455 48.327C23.5455 47.6455 22.9879 47.0879 22.3064 47.0879H21.0673Z" fill="#262626"/>
<path id="Vector_5" d="M26.0195 48.327C26.0195 49.0085 26.5771 49.5662 27.2587 49.5662H38.4108C39.0924 49.5662 39.65 49.0085 39.65 48.327C39.65 47.6455 39.0924 47.0879 38.4108 47.0879H27.2587C26.5771 47.0879 26.0195 47.6455 26.0195 48.327Z" fill="#262626"/>
<path id="Vector_6" d="M35.1932 53.5299L32.8079 55.3267C29.8185 51.5938 24.3818 50.9897 20.6489 53.9636C16.916 56.9375 16.312 62.3897 19.2859 66.1226C22.2753 69.8555 27.712 70.4595 31.4448 67.4856C34.4342 65.1003 35.503 61.0267 34.0625 57.4796L36.6802 55.5125C37.2223 55.0943 37.3307 54.3199 36.928 53.7777C36.5098 53.2356 35.7353 53.1272 35.1932 53.5299ZM26.0236 66.9125C22.6006 66.9125 19.828 64.14 19.828 60.7169C19.828 57.2938 22.6006 54.5212 26.0236 54.5212C27.8823 54.5212 29.6481 55.3576 30.8253 56.8136L26.1321 60.3296L24.4128 58.6103C23.9326 58.1302 23.1427 58.1302 22.6625 58.6103C22.1823 59.0905 22.1823 59.8805 22.6625 60.3606L25.1408 62.8389C25.5745 63.2726 26.2715 63.319 26.7671 62.9473L31.987 59.0286C32.9163 62.3123 31.0111 65.7353 27.712 66.6802C27.1698 66.8351 26.5967 66.9125 26.0236 66.9125Z" fill="#CA0100"/>
<path id="Vector_7" d="M32.2188 42.1298C32.2188 42.8113 32.7764 43.3689 33.4579 43.3689H42.1318C42.8133 43.3689 43.3709 42.8113 43.3709 42.1298C43.3709 41.4482 42.8133 40.8906 42.1318 40.8906H33.4579C32.7764 40.8906 32.2188 41.4482 32.2188 42.1298Z" fill="#262626"/>
<path id="Vector_8" d="M39.6493 59.4785C38.9678 59.4785 38.4102 60.0361 38.4102 60.7176C38.4102 61.3992 38.9678 61.9568 39.6493 61.9568H43.3667C44.0482 61.9568 44.6058 61.3992 44.6058 60.7176C44.6058 60.0361 44.0482 59.4785 43.3667 59.4785H39.6493Z" fill="#262626"/>
<path id="Vector_9" d="M38.4102 65.6747C38.4102 66.3562 38.9678 66.9138 39.6493 66.9138H45.8449C46.5265 66.9138 47.0841 66.3562 47.0841 65.6747C47.0841 64.9932 46.5265 64.4355 45.8449 64.4355H39.6493C38.9678 64.4355 38.4102 64.9932 38.4102 65.6747Z" fill="#262626"/>
<path id="Vector_10" d="M38.7072 27.293L34.3083 26.1933L32.0779 21.7479C31.861 21.3297 31.4428 21.0664 30.9627 21.0664H18.5714C18.1067 21.0664 17.673 21.3297 17.4561 21.7479L15.2102 26.2398L11.973 27.324C11.4619 27.4944 11.1211 27.9591 11.1211 28.5012V33.4577C11.1211 34.1392 11.6787 34.6968 12.3602 34.6968H15.0553C15.7369 36.633 17.8589 37.6398 19.795 36.9583C20.8483 36.5865 21.6847 35.7501 22.0564 34.6968H28.6858C29.3673 36.633 31.4893 37.6398 33.4254 36.9583C34.4787 36.5865 35.3151 35.7501 35.6869 34.6968H38.4129C39.0945 34.6968 39.6521 34.1392 39.6521 33.4577V28.5012C39.6521 27.9281 39.2648 27.4324 38.7072 27.293ZM31.4583 26.0229H26.0216V23.5447H30.2192L31.4583 26.0229ZM19.3458 23.5447H23.5434V26.0229H18.1067L19.3458 23.5447ZM18.5869 34.6968C17.9053 34.6968 17.3477 34.1392 17.3477 33.4577C17.3477 32.7762 17.9053 32.2186 18.5869 32.2186C19.2684 32.2186 19.826 32.7762 19.826 33.4577C19.826 34.1392 19.2684 34.6968 18.5869 34.6968ZM32.2173 34.6968C31.5358 34.6968 30.9782 34.1392 30.9782 33.4577C30.9782 32.7762 31.5358 32.2186 32.2173 32.2186C32.8988 32.2186 33.4564 32.7762 33.4564 33.4577C33.4564 34.1392 32.8988 34.6968 32.2173 34.6968ZM37.1738 32.2186H35.7178C35.0363 30.2824 32.9143 29.2756 30.9782 29.9572C29.9249 30.3289 29.0885 31.1653 28.7167 32.2186H22.0874C21.4059 30.2824 19.2839 29.2756 17.3477 29.9572C16.2945 30.3289 15.458 31.1653 15.0863 32.2186H13.6303V29.3996L16.31 28.5012H33.3015L37.1738 29.4615V32.2186Z" fill="#CA0100"/>
</g>
</svg>
