<svg width="68" height="83" viewBox="0 0 68 83" fill="none" xmlns="http://www.w3.org/2000/svg">
<g id="Group">
<path id="Vector" d="M33.7393 9.2247C33.6883 9.2247 33.6544 9.2247 33.6034 9.2247C32.8899 9.15675 32.3633 8.56217 32.3633 7.84868C32.3633 7.08422 32.9748 6.47266 33.7393 6.47266C34.5038 6.47266 35.1153 7.08422 35.1153 7.84868C35.1153 8.22241 34.9794 8.56217 34.7076 8.81699C34.4528 9.0888 34.113 9.2247 33.7393 9.2247Z" fill="#262626"/>
<path id="Vector_2" d="M33.738 82.3575C33.6021 82.3575 33.4662 82.3405 33.3473 82.3065C23.5793 79.3676 15.2212 73.4898 9.17349 65.3186C3.17674 57.1984 0 47.5832 0 37.4924V11.0761C0 10.3117 0.611566 9.70011 1.37602 9.70011C5.96277 9.70011 9.70011 5.96277 9.70011 1.37602C9.70011 0.611566 10.3117 0 11.0761 0H56.383C57.1474 0 57.759 0.611566 57.759 1.37602C57.759 5.96277 61.4963 9.70011 66.0831 9.70011C66.8475 9.70011 67.4591 10.3117 67.4591 11.0761V37.4754C67.4591 47.6851 64.2314 57.3853 58.1327 65.5225C52.085 73.5917 43.7779 79.3846 34.1288 82.2896C34.0098 82.3405 33.8739 82.3575 33.738 82.3575ZM12.5881 2.75205C12.4691 2.75205 12.3672 2.83699 12.3502 2.9559C11.6537 7.79746 7.79746 11.6537 2.9559 12.3502C2.83699 12.3672 2.75205 12.4691 2.75205 12.5881V37.4924C2.75205 56.8756 15.1702 73.7616 33.6531 79.5205C33.6701 79.5205 33.7041 79.5375 33.7211 79.5375C33.738 79.5375 33.772 79.5375 33.789 79.5205C52.2889 73.7616 64.724 56.8586 64.724 37.4924V12.5881C64.724 12.4691 64.6391 12.3672 64.5202 12.3502C59.6786 11.6537 55.8224 7.79746 55.1259 2.9559C55.1089 2.83699 55.0069 2.75205 54.888 2.75205H12.5881Z" fill="#262626"/>
<path id="Vector_3" d="M33.7344 75.545C33.5815 75.545 33.4286 75.511 33.2757 75.4601C25.3423 72.6571 18.6151 67.5777 13.8245 60.7995C9.01694 54.0043 6.46875 45.935 6.46875 37.492V16.2062C6.46875 15.6625 6.79152 15.1699 7.30116 14.949C10.7327 13.4541 13.4508 10.736 14.9457 7.30448C15.1666 6.81182 15.6592 6.47207 16.2028 6.47207H27.262C28.0264 6.47207 28.638 7.08363 28.638 7.84809C28.638 8.61255 28.0264 9.22411 27.262 9.22411H17.2221C17.1372 9.22411 17.0522 9.27508 17.0013 9.36002C15.3025 12.6727 12.6524 15.3228 9.33971 17.0216C9.25477 17.0556 9.20381 17.1405 9.20381 17.2424V37.509C9.20381 53.3927 18.785 67.2039 33.6325 72.691C33.6664 72.708 33.6834 72.708 33.7174 72.708C33.7514 72.708 33.7684 72.708 33.8023 72.691C48.6328 67.187 58.231 53.3758 58.231 37.509V17.2254C58.231 17.1405 58.18 17.0556 58.0951 17.0046C54.7824 15.3058 52.1323 12.6557 50.4335 9.34303C50.3996 9.25809 50.3146 9.20712 50.2127 9.20712H40.1728C39.4084 9.20712 38.7968 8.59556 38.7968 7.8311C38.7968 7.06664 39.4084 6.45508 40.1728 6.45508H51.232C51.7756 6.45508 52.2682 6.77785 52.4891 7.28749C53.984 10.7191 56.7021 13.4371 60.1336 14.9321C60.6263 15.1529 60.966 15.6456 60.966 16.1892V37.4751C60.966 45.935 58.4179 53.9873 53.6103 60.7995C48.8197 67.5777 42.0925 72.6571 34.1591 75.4601C34.0402 75.528 33.8873 75.545 33.7344 75.545Z" fill="#CA0100"/>
<g id="Group 3843">
<path id="Vector_4" d="M33.7388 52.253C25.8394 52.253 19.418 45.8316 19.418 37.9322C19.418 30.0328 25.8394 23.6113 33.7388 23.6113C41.6382 23.6113 48.0596 30.0328 48.0596 37.9322C48.0596 45.8316 41.6382 52.253 33.7388 52.253ZM33.7388 26.3804C27.3683 26.3804 22.17 31.5617 22.17 37.9491C22.17 44.3196 27.3513 49.5179 33.7388 49.5179C40.1093 49.5179 45.3076 44.3366 45.3076 37.9491C45.3076 31.5617 40.1093 26.3804 33.7388 26.3804Z" fill="#CA0100"/>
<path id="Vector_5" d="M32.1233 44.1684C31.7495 44.1684 31.4098 44.0325 31.1549 43.7607L27.9272 40.533C27.6724 40.2781 27.5195 39.9214 27.5195 39.5646C27.5195 39.1909 27.6554 38.8512 27.9272 38.5963C28.1821 38.3415 28.5388 38.1886 28.8956 38.1886C29.2523 38.1886 29.609 38.3245 29.8639 38.5963L31.9534 40.6859C32.0043 40.7368 32.0553 40.7538 32.1233 40.7538C32.1912 40.7538 32.2422 40.7368 32.2931 40.6859L39.2412 33.7378C39.496 33.483 39.8528 33.3301 40.2095 33.3301C40.5663 33.3301 40.923 33.466 41.1778 33.7378C41.7214 34.2814 41.7214 35.1478 41.1778 35.6914L33.0916 43.7777C32.8368 44.0325 32.48 44.1684 32.1233 44.1684Z" fill="#CA0100"/>
</g>
</g>
</svg>
