<svg width="19" height="25" viewBox="0 0 19 25" fill="none" xmlns="http://www.w3.org/2000/svg">
<path id="Icon" fill-rule="evenodd" clip-rule="evenodd" d="M3.67978 7.38526L4.11514 11.3035L3.23414 11.3739C2.00558 11.4719 1.00239 12.3955 0.803237 13.6117C0.344233 16.4149 0.344233 19.2741 0.803237 22.0773C1.00239 23.2936 2.00558 24.2171 3.23414 24.3152L5.1328 24.4668C8.13047 24.7061 11.1425 24.7061 14.1401 24.4668L16.0388 24.3152C17.2674 24.2171 18.2705 23.2936 18.4697 22.0773C18.9287 19.2741 18.9287 16.4149 18.4697 13.6117C18.2705 12.3955 17.2673 11.4719 16.0388 11.3739L15.1577 11.3035L15.593 7.38526C15.6443 6.92335 15.6443 6.45718 15.593 5.99528L15.5641 5.73526C15.2577 2.97712 13.0894 0.794786 10.3333 0.470539C9.87028 0.41607 9.40251 0.41607 8.93953 0.470539C6.18343 0.794786 4.01513 2.97712 3.70867 5.73525L3.67978 5.99528C3.62846 6.45718 3.62846 6.92335 3.67978 7.38526ZM10.1108 2.36107C9.79564 2.32399 9.47716 2.32399 9.16195 2.36107C7.2855 2.58183 5.80925 4.06764 5.6006 5.94547L5.57171 6.20549C5.53591 6.52769 5.53591 6.85285 5.57171 7.17505L6.01435 11.1588C8.42657 11.0041 10.8462 11.0041 13.2584 11.1588L13.7011 7.17505C13.7369 6.85285 13.7369 6.52769 13.7011 6.20549L13.6722 5.94547C13.4635 4.06764 11.9873 2.58183 10.1108 2.36107ZM9.63643 15.941C8.58511 15.941 7.73286 16.7932 7.73286 17.8445C7.73286 18.8959 8.58511 19.7481 9.63643 19.7481C10.6877 19.7481 11.54 18.8959 11.54 17.8445C11.54 16.7932 10.6877 15.941 9.63643 15.941Z" fill="#6C5FBC"/>
</svg>
