<svg width="127" height="38" viewBox="0 0 127 38" fill="none" xmlns="http://www.w3.org/2000/svg">
<g id="logo1 1" clip-path="url(#clip0_1_15748)">
<path id="Vector" d="M22.6432 4.66876C26.4324 12.9157 30.2522 21.1626 34.072 29.4701C34.1942 29.3488 34.2859 29.2579 34.3776 29.1669C35.5082 27.469 36.3333 25.6802 36.8833 23.7094C37.3723 21.9812 37.6167 20.2227 37.5556 18.4641C37.464 14.4013 36.1805 10.7023 33.7053 7.45815C32.2385 5.5177 30.4356 3.94109 28.3576 2.69799C26.738 1.72777 24.9962 0.969779 23.1016 0.575625C22.796 0.514986 22.4904 0.454347 22.1848 0.393708C21.9709 0.333069 21.8487 0.424028 21.757 0.605945C20.9625 2.15224 20.168 3.69853 19.3735 5.27515C17.9984 7.97358 16.6232 10.6417 15.2787 13.3401C14.2397 15.3715 13.2007 17.4333 12.1617 19.4647C10.9394 21.8599 9.71708 24.2855 8.4642 26.6807C7.57801 28.4392 6.69182 30.1978 5.77507 31.9563C5.62228 32.2595 5.65284 32.4414 5.92786 32.6536C6.47791 33.0781 7.02796 33.5329 7.54745 33.9574C7.7308 34.109 7.82247 34.0787 7.94471 33.8664C8.8309 32.1079 9.68653 30.3494 10.5727 28.5908C11.795 26.135 13.0479 23.6488 14.2703 21.1929C15.4926 18.7067 16.7455 16.2508 17.9678 13.7646C19.2818 11.1571 20.5958 8.54965 21.8793 5.91186C22.0932 5.48738 22.2765 5.09323 22.4904 4.66876C22.5821 4.66876 22.6127 4.66876 22.6432 4.66876Z" fill="#262626"/>
<path id="Vector_2" d="M3.48377 29.5611C3.72823 29.1063 3.94214 28.6819 4.18661 28.2271C5.83675 24.9526 7.4869 21.6781 9.13704 18.4339C10.5733 15.5839 11.979 12.7338 13.4152 9.88379C14.8514 7.00344 16.3182 4.12308 17.7545 1.21241C17.9073 0.939536 18.06 0.636342 18.1823 0.363466C18.3045 0.0905906 18.2434 -0.0306874 17.9378 0.0299516C16.8072 0.181549 15.6459 0.272508 14.5153 0.515064C11.5511 1.15177 8.95369 2.48583 6.63126 4.39596C4.30884 6.30609 2.56702 8.67101 1.37525 11.4301C0.672409 13.0673 0.214036 14.7652 0.000128329 16.5238C-0.183221 18.3126 -0.183221 20.0711 0.122361 21.86C0.519618 24.2249 1.34469 26.4079 2.56702 28.4393C2.75037 28.7728 2.96428 29.076 3.17818 29.3792C3.2393 29.4702 3.26986 29.5611 3.30042 29.6521C3.39209 29.6218 3.45321 29.5915 3.48377 29.5611Z" fill="#262626"/>
<path id="Vector_3" d="M30.8962 31.7441C30.01 29.834 29.1239 27.8936 28.2377 25.9531H15.7394C15.006 27.4085 14.242 28.8638 13.5392 30.3495C12.7446 31.9564 12.0112 33.5936 11.2473 35.2309C11.0334 35.6857 11.0945 35.7463 11.5529 35.8979C12.5307 36.2011 13.478 36.5649 14.4865 36.7772C16.32 37.2017 18.184 37.3229 20.0786 37.1107C20.9342 37.0197 21.7899 36.9591 22.615 36.7469C23.8373 36.4133 25.0596 35.9889 26.2514 35.4734C27.9321 34.7458 29.3989 33.6846 30.7434 32.5021C30.9573 32.2293 31.049 32.0777 30.8962 31.7441Z" fill="#C2C2C4"/>
<path id="Vector_4" d="M26.7084 22.5877C26.0361 21.0718 25.3332 19.5861 24.661 18.0701C23.9581 16.5542 23.2858 15.0685 22.583 13.5525C22.5219 13.4009 22.4302 13.2493 22.308 13.0371C22.0024 13.6132 21.7579 14.0983 21.5135 14.5834C21.269 15.0685 21.0245 15.5839 20.7495 16.0691C19.6494 18.2521 18.5493 20.4351 17.4492 22.5877H26.7084Z" fill="#CA0100"/>
<g id="Group">
<path id="Vector_5" d="M51.1549 9.49121C51.766 9.49121 52.1327 9.67313 52.4994 10.3705L56.3803 17.3743C56.472 17.5259 56.4415 17.6472 56.2275 17.6472H54.7302C54.5774 17.6472 54.5163 17.6168 54.4552 17.4956L53.6301 15.9796H48.0991L47.274 17.4956C47.2129 17.6168 47.1518 17.6472 46.999 17.6472H45.471C45.2571 17.6472 45.2266 17.5259 45.3183 17.3743L49.1686 10.3705C49.5658 9.67313 49.902 9.49121 50.3909 9.49121H51.1549ZM48.863 14.6455H52.8967L51.0326 11.2194C51.0021 11.1588 50.9715 11.1285 50.9104 11.1285H50.8493C50.7882 11.1285 50.7576 11.1588 50.7271 11.2194L48.863 14.6455Z" fill="#262626"/>
<path id="Vector_6" d="M64.51 9.49028C66.1296 9.49028 66.7407 10.127 66.7407 11.4004V11.9462C66.7407 12.6132 66.4963 13.0983 65.9768 13.4318C66.5268 13.735 66.8019 14.2504 66.8019 14.9478V15.6148C66.8019 16.8579 66.2824 17.6462 64.7239 17.6462H57.7261C57.4816 17.6462 57.3594 17.5249 57.3594 17.2824V9.8238C57.3594 9.58124 57.4816 9.45996 57.7261 9.45996H64.51V9.49028ZM59.1929 12.8861H64.0211C64.785 12.8861 65.0295 12.6435 65.0295 12.1887V11.7946C65.0295 11.3095 64.785 11.0972 64.1739 11.0972H59.3762C59.2845 11.0972 59.2234 11.1579 59.2234 11.2488L59.1929 12.8861ZM59.1929 14.1595V15.8877C59.1929 15.9787 59.254 16.0393 59.3457 16.0393H64.1739C64.785 16.0393 65.0295 15.8271 65.0295 15.3419V14.8872C65.0295 14.402 64.785 14.1595 64.0211 14.1595H59.1929Z" fill="#262626"/>
<path id="Vector_7" d="M76.6728 9.49028C76.8561 9.49028 76.9173 9.58124 76.9173 9.73284V10.885C76.9173 11.0669 76.8256 11.1579 76.6728 11.1579H71.4473C70.225 11.1579 69.8889 11.5217 69.8889 12.7345V14.402C69.8889 15.6451 70.2556 16.009 71.4473 16.009H76.6728C76.8561 16.009 76.9173 16.0999 76.9173 16.2515V17.4037C76.9173 17.5856 76.8256 17.6462 76.6728 17.6462H71.3862C69.0027 17.6462 68.0859 16.7973 68.0859 14.5536V12.5525C68.0859 10.3089 69.0027 9.45996 71.3862 9.45996L76.6728 9.49028Z" fill="#262626"/>
<path id="Vector_8" d="M87.3658 9.49023C87.977 9.49023 88.3437 9.67215 88.7104 10.3695L92.5913 17.3733C92.683 17.5249 92.6524 17.6462 92.4385 17.6462H90.9411C90.7884 17.6462 90.7272 17.6159 90.6661 17.4946L89.8411 15.9786H84.31L83.4849 17.4946C83.4238 17.6159 83.3627 17.6462 83.2099 17.6462H81.682C81.4681 17.6462 81.4375 17.5249 81.5292 17.3733L85.4407 10.3998C85.8379 9.70247 86.1741 9.52055 86.663 9.52055H87.3658V9.49023ZM85.074 14.6446H89.1077L87.2436 11.2184C87.213 11.1578 87.1825 11.1275 87.1214 11.1275H87.0602C86.9991 11.1275 86.9686 11.1578 86.938 11.2184L85.074 14.6446Z" fill="#262626"/>
<path id="Vector_9" d="M94.6398 9.49023C94.8232 9.49023 94.8843 9.58119 94.8843 9.73279V14.402C94.8843 15.6451 95.251 16.0089 96.4427 16.0089H99.7125C100.935 16.0089 101.271 15.6451 101.271 14.402V9.73279C101.271 9.55087 101.363 9.49023 101.515 9.49023H102.799C102.982 9.49023 103.043 9.58119 103.043 9.73279V14.5536C103.043 16.7972 102.127 17.6462 99.743 17.6462H96.3511C93.9675 17.6462 93.0508 16.7972 93.0508 14.5536V9.73279C93.0508 9.55087 93.1425 9.49023 93.3258 9.49023H94.6398Z" fill="#262626"/>
<path id="Vector_10" d="M113.556 9.49023C113.739 9.49023 113.831 9.58119 113.831 9.73279V10.8849C113.831 11.0668 113.739 11.1578 113.556 11.1578H109.858V17.4036C109.858 17.5855 109.767 17.6462 109.614 17.6462H108.33C108.147 17.6462 108.086 17.5552 108.086 17.4036V11.1578H104.388C104.205 11.1578 104.113 11.0668 104.113 10.8849V9.73279C104.113 9.55087 104.205 9.49023 104.388 9.49023H113.556Z" fill="#262626"/>
<path id="Vector_11" d="M121.468 9.49023C123.852 9.49023 124.768 10.3392 124.768 12.5828V14.5839C124.768 16.8276 123.852 17.6765 121.468 17.6765H117.832C115.448 17.6765 114.531 16.8276 114.531 14.5839V12.5828C114.531 10.3392 115.448 9.49023 117.832 9.49023H121.468ZM116.334 14.4626C116.334 15.6754 116.701 16.0392 117.893 16.0392H121.376C122.599 16.0392 122.935 15.6754 122.935 14.4626V12.7041C122.935 11.4913 122.568 11.1275 121.376 11.1275H117.893C116.67 11.1275 116.334 11.4913 116.334 12.7041V14.4626Z" fill="#262626"/>
</g>
<g id="Group_2">
<path id="Vector_12" d="M48.8642 23.0127C49.9948 23.0127 50.3921 23.4068 50.3921 24.468V25.4079C50.3921 26.4691 49.9643 26.8633 48.8642 26.8633H47.1529C46.0528 26.8633 45.625 26.4691 45.625 25.4079V24.468C45.625 23.4068 46.0528 23.0127 47.1529 23.0127H48.8642ZM46.4806 25.3473C46.4806 25.9234 46.6334 26.075 47.214 26.075H48.8336C49.4142 26.075 49.567 25.893 49.567 25.3473V24.5287C49.567 23.9526 49.4142 23.801 48.8336 23.801H47.214C46.6334 23.801 46.4806 23.9829 46.4806 24.5287V25.3473Z" fill="#737373"/>
<path id="Vector_13" d="M53.7243 22.7393C53.816 22.7393 53.8465 22.7696 53.8465 22.8605V23.8308H54.5493C55.5272 23.8308 55.8634 24.134 55.8634 24.9526V25.7409C55.8634 26.5292 55.5578 26.8324 54.5493 26.8324H53.8465V27.9239C53.8465 28.0149 53.816 28.0452 53.7243 28.0452H53.1742C53.0826 28.0452 53.052 28.0149 53.052 27.9239V26.8324H52.3492C51.3713 26.8324 51.0352 26.5292 51.0352 25.7409V24.9526C51.0352 24.1643 51.3407 23.8308 52.3492 23.8308H53.052V22.8605C53.052 22.7696 53.0826 22.7393 53.1742 22.7393H53.7243ZM51.8297 25.6196C51.8297 26.0744 51.9519 26.226 52.4408 26.226H53.0826V24.4978H52.4408C51.9825 24.4978 51.8297 24.6494 51.8297 25.1042V25.6196ZM53.8465 24.4978V26.226H54.4882C54.9772 26.226 55.0994 26.0744 55.0994 25.6196V25.1042C55.0994 24.6494 54.9772 24.4978 54.4882 24.4978H53.8465Z" fill="#737373"/>
<path id="Vector_14" d="M57.1449 23.8613C57.2366 23.8613 57.2672 23.8916 57.2672 23.9826V26.0747C57.2672 26.105 57.2977 26.1353 57.2977 26.1353H57.3588C57.3894 26.1353 57.42 26.1353 57.42 26.105L59.0701 24.1948C59.2535 23.9523 59.3757 23.8613 59.7424 23.8613H60.048C60.3841 23.8613 60.5369 23.9826 60.5369 24.4374V26.7417C60.5369 26.8326 60.5063 26.863 60.4147 26.863H59.8646C59.7729 26.863 59.7424 26.8326 59.7424 26.7417V24.6496C59.7424 24.6193 59.7424 24.589 59.7118 24.589H59.6507C59.6202 24.589 59.5896 24.589 59.5896 24.6193L57.9395 26.5294C57.7255 26.772 57.6339 26.863 57.2672 26.863H56.9616C56.6254 26.863 56.4727 26.7417 56.4727 26.2869V23.9826C56.4727 23.8916 56.5032 23.8613 56.5949 23.8613H57.1449Z" fill="#737373"/>
<path id="Vector_15" d="M61.9113 23.8613C62.0029 23.8613 62.0335 23.8916 62.0335 23.9826V26.105C62.0335 26.1959 62.064 26.2262 62.1557 26.2262H64.5393V24.0129C64.5393 23.922 64.5698 23.8916 64.6615 23.8916H65.2115C65.3032 23.8916 65.3338 23.922 65.3338 24.0129V26.2262H66.0672C66.1589 26.2262 66.1894 26.2566 66.1894 26.3475V27.7725C66.1894 27.8635 66.1589 27.8938 66.0672 27.8938H65.6394C65.5477 27.8938 65.5171 27.8635 65.5171 27.7725V26.863H61.789C61.4223 26.863 61.2695 26.7114 61.2695 26.4082V24.0129C61.2695 23.922 61.3001 23.8916 61.3918 23.8916L61.9113 23.8613Z" fill="#737373"/>
<path id="Vector_16" d="M67.3214 23.8613C67.4131 23.8613 67.4436 23.8916 67.4436 23.9826V26.0747C67.4436 26.105 67.4742 26.1353 67.4742 26.1353H67.5353C67.5659 26.1353 67.5964 26.1353 67.5964 26.105L69.2466 24.1948C69.4299 23.9523 69.5522 23.8613 69.9189 23.8613H70.2244C70.5606 23.8613 70.7134 23.9826 70.7134 24.4374V26.7417C70.7134 26.8326 70.6828 26.863 70.5911 26.863H70.0411C69.9494 26.863 69.9189 26.8326 69.9189 26.7417V24.6496C69.9189 24.6193 69.9189 24.589 69.8883 24.589H69.8577C69.8272 24.589 69.7966 24.589 69.7966 24.6193L68.1465 26.5294C67.9326 26.772 67.8409 26.863 67.4742 26.863H67.1686C66.8325 26.863 66.6797 26.7417 66.6797 26.2869V23.9826C66.6797 23.8916 66.7102 23.8613 66.8019 23.8613H67.3214Z" fill="#737373"/>
<path id="Vector_17" d="M73.8599 23.8613C74.8377 23.8613 75.1739 24.1645 75.1739 24.9832V26.4385C75.1739 26.8023 75.0822 26.863 74.7766 26.863H72.1486C71.5069 26.863 71.293 26.6204 71.293 26.0747V25.8018C71.293 25.347 71.4763 25.0741 72.1486 25.0741H74.3793V24.9832C74.3793 24.6193 74.2571 24.498 73.7682 24.498H71.4763C71.4152 24.498 71.3846 24.4677 71.3846 24.4071V23.9523C71.3846 23.8916 71.4152 23.8613 71.4763 23.8613H73.8599ZM74.3793 26.0443V25.5592H72.3625C72.1486 25.5592 72.0569 25.6502 72.0569 25.8321V25.9534C72.0569 26.1353 72.1486 26.2262 72.3625 26.2262H74.2266C74.3488 26.2566 74.3793 26.1959 74.3793 26.0443Z" fill="#737373"/>
<path id="Vector_18" d="M79.1183 23.8614C79.4544 23.8614 79.5767 24.013 79.5767 24.2858V26.7114C79.5767 26.8024 79.5461 26.8327 79.4544 26.8327H78.9044C78.8127 26.8327 78.7821 26.8024 78.7821 26.7114V24.6194C78.7821 24.5587 78.7516 24.5284 78.6905 24.5284H77.4987C77.3765 24.5284 77.3765 24.589 77.3459 24.6497C77.2848 24.9529 77.1931 25.8321 76.9792 26.3173C76.8264 26.6508 76.6431 26.8327 76.1847 26.8327H75.6652C75.6041 26.8327 75.543 26.8024 75.543 26.7114V26.3173C75.543 26.2263 75.5735 26.196 75.6652 26.196H76.0625C76.2152 26.196 76.3375 26.1657 76.4597 25.8625C76.582 25.5593 76.6736 25.0135 76.7653 24.1949C76.7959 23.9827 76.8875 23.8311 77.2237 23.8311H79.1183V23.8614Z" fill="#737373"/>
<path id="Vector_19" d="M80.9184 23.8613C81.01 23.8613 81.0406 23.8916 81.0406 23.9826V24.7709H83.1186C83.8825 24.7709 84.1881 25.0741 84.1881 25.6199V25.9837C84.1881 26.5598 83.8825 26.8326 83.1186 26.8326H80.3989C80.3072 26.8326 80.2461 26.772 80.2461 26.681V23.9826C80.2461 23.8916 80.2767 23.8613 80.3683 23.8613H80.9184ZM81.0406 25.347V26.1656C81.0406 26.1959 81.0712 26.2263 81.1017 26.2263H82.9658C83.3019 26.2263 83.4241 26.105 83.4241 25.8927V25.6805C83.4241 25.4379 83.3019 25.347 82.9658 25.347H81.0406Z" fill="#737373"/>
<path id="Vector_20" d="M85.4731 23.8613C85.5647 23.8613 85.5953 23.8916 85.5953 23.9826V25.0135H88.1011V23.9826C88.1011 23.8916 88.1316 23.8613 88.2233 23.8613H88.7734C88.865 23.8613 88.8956 23.8916 88.8956 23.9826V26.7417C88.8956 26.8326 88.865 26.863 88.7734 26.863H88.2233C88.1316 26.863 88.1011 26.8326 88.1011 26.7417V25.6502H85.5953V26.7417C85.5953 26.8326 85.5647 26.863 85.4731 26.863H84.923C84.8313 26.863 84.8008 26.8326 84.8008 26.7417V23.9826C84.8008 23.8916 84.8313 23.8613 84.923 23.8613H85.4731Z" fill="#737373"/>
<path id="Vector_21" d="M90.2387 23.8613C90.3304 23.8613 90.3609 23.8916 90.3609 23.9826V24.7709H92.4389C93.2028 24.7709 93.5084 25.0741 93.5084 25.6199V25.9837C93.5084 26.5598 93.2028 26.8326 92.4389 26.8326H89.7192C89.6275 26.8326 89.5664 26.772 89.5664 26.681V23.9826C89.5664 23.8916 89.597 23.8613 89.6886 23.8613H90.2387ZM90.3609 25.347V26.1656C90.3609 26.1959 90.3915 26.2262 90.422 26.2262H92.2861C92.6222 26.2262 92.7445 26.105 92.7445 25.8927V25.6805C92.7445 25.4379 92.6222 25.347 92.2861 25.347H90.3609ZM94.6085 23.8613C94.7002 23.8613 94.7308 23.8916 94.7308 23.9826V26.7417C94.7308 26.8326 94.7002 26.863 94.6085 26.863H94.0585C93.9668 26.863 93.9362 26.8326 93.9362 26.7417V23.9826C93.9362 23.8916 93.9668 23.8613 94.0585 23.8613H94.6085Z" fill="#737373"/>
<path id="Vector_22" d="M96.0785 23.8614C96.1702 23.8614 96.2008 23.8918 96.2008 23.9827V26.0748C96.2008 26.1051 96.2313 26.1354 96.2313 26.1354H96.2924C96.323 26.1354 96.3535 26.1354 96.3535 26.1051L98.0037 24.195C98.187 23.9524 98.3093 23.8614 98.676 23.8614H98.9816C99.3177 23.8614 99.4705 23.9827 99.4705 24.4375V26.7418C99.4705 26.8328 99.4399 26.8631 99.3483 26.8631H98.7982C98.7065 26.8631 98.676 26.8328 98.676 26.7418V24.6498C98.676 24.6194 98.676 24.5891 98.6454 24.5891H98.5843C98.5537 24.5891 98.5232 24.5891 98.5232 24.6194L96.873 26.5296C96.6591 26.7721 96.5675 26.8631 96.2008 26.8631H95.8952C95.559 26.8631 95.4062 26.7418 95.4062 26.287V23.9827C95.4062 23.8918 95.4368 23.8614 95.5285 23.8614H96.0785ZM96.1396 22.6183C96.1396 22.5577 96.1702 22.4971 96.2313 22.4971C96.2619 22.4971 96.323 22.5274 96.3841 22.5577C96.5063 22.6487 96.9036 22.9822 97.4536 22.9822C98.0037 22.9822 98.4009 22.6487 98.5232 22.5577C98.5843 22.5274 98.6149 22.4971 98.6454 22.4971C98.7065 22.4971 98.7371 22.5577 98.7371 22.6183V22.8912C98.7371 22.9822 98.7371 23.0428 98.6454 23.1035C98.4621 23.2551 97.9426 23.4976 97.4231 23.4976C96.9036 23.4976 96.4147 23.2854 96.2008 23.1035C96.1091 23.0125 96.0785 22.9519 96.0785 22.8912V22.6183H96.1396Z" fill="#737373"/>
<path id="Vector_23" d="M105.487 23.8614C105.823 23.8614 105.946 24.013 105.946 24.2858V26.196H106.679C106.771 26.196 106.801 26.2263 106.801 26.3173V27.7423C106.801 27.8332 106.771 27.8636 106.679 27.8636H106.221C106.129 27.8636 106.098 27.8332 106.098 27.7423V26.8327H102.493V27.7423C102.493 27.8332 102.462 27.8636 102.37 27.8636H101.943C101.851 27.8636 101.82 27.8332 101.82 27.7423V26.3173C101.82 26.2263 101.851 26.196 101.943 26.196H102.401C102.554 26.196 102.676 26.1657 102.798 25.8625C102.92 25.5593 103.012 25.0135 103.104 24.1949C103.134 23.9827 103.226 23.8311 103.562 23.8311H105.487V23.8614ZM105.151 26.196V24.6194C105.151 24.5587 105.121 24.5284 105.059 24.5284H103.868C103.745 24.5284 103.745 24.589 103.715 24.6497C103.684 24.9529 103.562 25.6805 103.409 26.196H105.151Z" fill="#737373"/>
<path id="Vector_24" d="M107.934 23.8613C108.026 23.8613 108.056 23.8916 108.056 23.9826V26.0747C108.056 26.105 108.087 26.1353 108.087 26.1353H108.148C108.178 26.1353 108.209 26.1353 108.209 26.105L109.859 24.1948C110.043 23.9523 110.165 23.8613 110.531 23.8613H110.837C111.173 23.8613 111.326 23.9826 111.326 24.4374V26.7417C111.326 26.8326 111.295 26.863 111.204 26.863H110.654C110.562 26.863 110.531 26.8326 110.531 26.7417V24.6496C110.531 24.6193 110.531 24.589 110.501 24.589H110.44C110.409 24.589 110.379 24.589 110.379 24.6193L108.729 26.5294C108.515 26.772 108.423 26.863 108.056 26.863H107.751C107.415 26.863 107.262 26.7417 107.262 26.2869V23.9826C107.262 23.8916 107.292 23.8613 107.384 23.8613H107.934Z" fill="#737373"/>
<path id="Vector_25" d="M115.36 23.8614C115.697 23.8614 115.819 24.013 115.819 24.2858V26.7114C115.819 26.8024 115.788 26.8327 115.697 26.8327H115.147C115.055 26.8327 115.024 26.8024 115.024 26.7114V24.6194C115.024 24.5587 114.994 24.5284 114.933 24.5284H113.741C113.619 24.5284 113.619 24.589 113.588 24.6497C113.527 24.9529 113.435 25.8321 113.221 26.3173C113.069 26.6508 112.885 26.8327 112.427 26.8327H111.907C111.846 26.8327 111.785 26.8024 111.785 26.7114V26.3173C111.785 26.2263 111.816 26.196 111.907 26.196H112.305C112.457 26.196 112.58 26.1657 112.702 25.8625C112.824 25.5593 112.916 25.0135 113.007 24.1949C113.038 23.9827 113.13 23.8311 113.466 23.8311H115.36V23.8614Z" fill="#737373"/>
<path id="Vector_26" d="M119.332 23.8614C120.096 23.8614 120.279 24.1039 120.279 24.771V25.2864C120.279 25.5289 120.188 25.5896 119.974 25.5896H117.193V25.7109C117.193 26.0444 117.315 26.196 117.804 26.196H120.096C120.157 26.196 120.188 26.2263 120.188 26.2869V26.7417C120.188 26.8024 120.157 26.8327 120.096 26.8327H117.712C116.735 26.8327 116.398 26.5295 116.398 25.7412V24.9529C116.398 24.1646 116.704 23.8311 117.712 23.8311L119.332 23.8614ZM117.193 25.0742H119.424C119.485 25.0742 119.515 25.0438 119.515 24.9832V24.7406C119.515 24.5284 119.424 24.4374 119.179 24.4374H117.804C117.315 24.4374 117.193 24.589 117.193 24.9226V25.0742Z" fill="#737373"/>
<path id="Vector_27" d="M123.701 23.8614C124.679 23.8614 125.015 24.1646 125.015 24.9832V25.7715C125.015 26.5598 124.709 26.863 123.701 26.863H121.623V27.9545C121.623 28.0455 121.592 28.0758 121.5 28.0758H120.95C120.859 28.0758 120.828 28.0455 120.828 27.9545V24.9529C120.828 24.1646 121.134 23.8311 122.142 23.8311L123.701 23.8614ZM121.623 26.196H123.609C124.098 26.196 124.22 26.0444 124.22 25.5896V25.1045C124.22 24.6497 124.098 24.4981 123.609 24.4981H122.234C121.775 24.4981 121.623 24.6497 121.623 25.1045V26.196Z" fill="#737373"/>
</g>
</g>
<defs>
<clipPath id="clip0_1_15748">
<rect width="127" height="37.202" fill="white"/>
</clipPath>
</defs>
</svg>
