<svg width="9" height="9" viewBox="0 0 9 9" fill="none" xmlns="http://www.w3.org/2000/svg">
<g id="Frame 8">
<path id="Vector" d="M8.79822 7.10442L7.40832 5.71435C7.13147 5.43862 6.67301 5.447 6.38653 5.73359L5.68628 6.43368C5.64204 6.4093 5.59625 6.38383 5.54811 6.35681C5.10591 6.11179 4.50069 5.77597 3.86383 5.13864C3.22507 4.49996 2.88894 3.89381 2.64317 3.45133C2.61724 3.40445 2.59239 3.35926 2.56785 3.31633L3.03782 2.84707L3.26887 2.61573C3.5558 2.32872 3.56371 1.87039 3.28751 1.59386L1.89761 0.203643C1.62141 -0.0725026 1.16274 -0.0641251 0.875815 0.22288L0.484091 0.616853L0.494796 0.62748C0.363446 0.795081 0.253686 0.988383 0.172005 1.19684C0.0967117 1.39526 0.0498342 1.5846 0.0283993 1.77434C-0.155129 3.29583 0.540148 4.68636 2.42704 6.57328C5.0353 9.18135 7.13721 8.98433 7.22789 8.97471C7.42538 8.9511 7.61465 8.90392 7.807 8.82922C8.01364 8.74849 8.20681 8.63889 8.37431 8.50782L8.38287 8.51542L8.77971 8.12683C9.06604 7.83988 9.07429 7.38139 8.79822 7.10442Z" fill="white"/>
</g>
</svg>
