<svg width="140" height="57" viewBox="0 0 140 57" fill="none" xmlns="http://www.w3.org/2000/svg">
<rect width="140" height="57" rx="10" fill="#EFF0F0"/>
<path d="M49.6074 35.2621H52.1611V24.9918H55.4061V22.5352H49.6074V35.2621Z" fill="#990032"/>
<path d="M80.4668 24.9918H83.0171V35.2621H85.5708V24.9918H88.1245V22.5352H80.4668V24.9918Z" fill="#990032"/>
<path d="M23 22.5352V35.2656H25.4966V32.0313H28.745L30.6242 30.1906V24.3759L28.8289 22.5352H23ZM28.0738 29.5782H25.4966V24.9918H28.0738V29.5782Z" fill="#990032"/>
<path d="M33.8793 22.5352L32.084 24.3759V33.4248L33.8793 35.2656H38.386L40.1847 33.4248V24.3759L38.386 22.5352H33.8793ZM37.6276 32.8055H34.6343V24.9918H37.6276V32.8055Z" fill="#990032"/>
<path d="M44.3531 24.9918H47.9739V22.5352H43.5947L41.8027 24.3759V33.4214L43.5947 35.2656H47.994V32.8055H44.3531V24.9918Z" fill="#990032"/>
<path d="M57.975 22.5352L56.1797 24.3759V33.4248L57.975 35.2656H62.4817L64.2804 33.4248V24.3759L62.4817 22.5352H57.975ZM61.7267 32.8055H58.7334V24.9918H61.7267V32.8055Z" fill="#990032"/>
<path d="M89.4531 22.5352V35.2656H91.9498V32.0313H95.1981L97.0806 30.1906V24.3759L95.2853 22.5352H89.4531ZM94.5236 29.5782H91.9464V24.9918H94.5236V29.5782Z" fill="#990032"/>
<path d="M68.4521 24.9918H72.0696V22.5352H67.6937L65.8984 24.3759V33.4214L67.6937 35.2656H72.0897V32.8055H68.4521V24.9918Z" fill="#990032"/>
<path d="M75.8721 24.9918H79.4895V22.5352H75.1137L73.3184 24.3759V33.4214L75.1137 35.2656H79.5096V32.8055H75.8721V24.9918Z" fill="#990032"/>
<path d="M114.162 28.7386L115.977 22.5352H113.417L112.037 27.3417H111.578L110.195 22.5352H107.635L109.457 28.7627L107.611 35.2621H110.135L111.601 30.2422H112.011L113.48 35.2621H116.001L114.162 28.7386Z" fill="#990032"/>
<path d="M104.469 35.2616H107.04L104.479 22.5312H100.117L97.5566 35.2616H100.043L100.624 32.227H103.875L104.469 35.2616ZM101.094 29.8357L102.02 24.9879H102.506L103.432 29.8357H101.094Z" fill="#990032"/>
</svg>
