<svg width="17" height="20" viewBox="0 0 17 20" fill="none" xmlns="http://www.w3.org/2000/svg">
<g id="stopwatch 1">
<g id="Group">
<g id="Group_2">
<path id="Vector" d="M5.84766 0V1.66838H7.51603V2.50255C8.09995 2.41914 8.60046 2.41914 9.18441 2.50255V1.66838H10.8528V0H5.84766Z" fill="#262626"/>
</g>
</g>
<g id="Group_3">
<g id="Group_4">
<path id="Vector_2" d="M14.0209 5.50592L14.6048 4.922L15.2722 5.58936L16.4401 4.42149L13.9375 1.91895L12.7696 3.08681L13.437 3.75413L12.6862 4.5049C8.68216 2.08576 3.51022 3.33703 1.17453 7.3411C-1.16117 11.3452 0.0900633 16.3503 4.01073 18.7694C7.9314 21.1885 13.1033 19.9373 15.439 15.9332C17.5245 12.513 16.9406 8.17531 14.0209 5.50592ZM8.34846 17.4347C5.09516 17.4347 2.5092 14.8488 2.5092 11.5955C2.5092 8.34216 5.09516 5.75617 8.34846 5.75617V11.5954H14.1877C14.1878 14.8487 11.6018 17.4347 8.34846 17.4347Z" fill="#262626"/>
</g>
</g>
</g>
</svg>
