<svg width="78" height="78" viewBox="0 0 78 78" fill="none" xmlns="http://www.w3.org/2000/svg">
<g id="Group">
<path id="Vector" d="M23.0129 33.3864V33.4312C22.8338 36.7888 24.7141 39.9226 27.8031 41.4448H27.8479C28.9223 41.982 29.8177 42.8326 30.3997 43.9071V43.9518C31.9666 46.9066 35.19 48.7421 38.6372 48.563H38.682C39.9355 48.4735 41.189 48.8316 42.2187 49.5032C45.1287 51.3387 48.8445 51.3387 51.7545 49.5032C52.8289 48.8316 54.0377 48.5183 55.2912 48.563H55.336C58.7832 48.7421 62.0065 46.9514 63.5735 43.9518C64.1554 42.8774 65.0508 42.0268 66.1253 41.4895H66.17C69.2591 39.9674 71.1394 36.8336 70.9603 33.4759V33.4312C70.9155 32.2672 71.2289 31.1032 71.9005 30.1183C73.8255 27.2978 73.8255 23.582 71.9005 20.8063C71.2289 19.8214 70.9155 18.6574 70.9603 17.4934V17.4487C71.1394 14.091 69.2591 10.9572 66.17 9.43504H66.1253C65.0508 8.89781 64.1554 8.0472 63.5735 6.97275V6.92798C62.0065 3.97324 58.7832 2.13771 55.336 2.31679H55.2912C54.0377 2.40633 52.7842 2.04818 51.7545 1.37664C48.8445 -0.458881 45.1287 -0.458881 42.2187 1.37664C41.1442 2.04818 39.9355 2.36156 38.682 2.31679H38.6372C35.19 2.13771 31.9666 3.92847 30.3997 6.92798C29.8177 8.00244 28.9223 8.85304 27.8479 9.39027H27.8031C24.7141 10.9124 22.8338 14.0462 23.0129 17.4039V17.4487C23.0576 18.6127 22.7442 19.7766 22.0727 20.7616C20.1476 23.582 20.1476 27.2978 22.0727 30.0735C22.7442 31.0136 23.0576 32.1776 23.0129 33.3864ZM24.4455 22.3732C25.4751 20.8511 25.9676 19.0603 25.8781 17.2248V17.1801C25.7885 14.9416 27.042 12.8822 29.0566 11.9421H29.1014C30.7579 11.1363 32.1009 9.83796 32.9515 8.22628V8.18151C33.9812 6.21168 36.1749 5.00292 38.4581 5.13723H38.5029C40.3384 5.22677 42.1739 4.77908 43.7408 3.79416C45.7107 2.54063 48.2177 2.54063 50.1876 3.79416C51.7545 4.77908 53.59 5.27153 55.4255 5.13723H55.4703C57.7983 5.00292 59.9472 6.21168 60.9769 8.18151V8.22628C61.8275 9.83796 63.1705 11.1363 64.827 11.9421H64.8717C66.9311 12.927 68.1399 14.9864 68.0503 17.1801V17.2248C67.9608 19.0603 68.4533 20.8511 69.4829 22.3732C70.7365 24.2088 70.7365 26.5815 69.4829 28.417C68.4533 29.9392 67.9608 31.7299 68.0503 33.5655V33.6102C68.1846 35.8039 66.9311 37.8633 64.8717 38.8482C63.2153 39.654 61.8722 40.9523 61.0216 42.564C59.9919 44.5338 57.7983 45.7426 55.5151 45.6083H55.4703C53.6348 45.5187 51.7992 45.9664 50.2323 46.9514C48.2625 48.2049 45.7554 48.2049 43.7856 46.9514C42.353 46.056 40.6966 45.5635 39.0401 45.5635C38.861 45.5635 38.7267 45.5635 38.5476 45.5635H38.5029C36.2197 45.6978 34.0708 44.5338 32.9963 42.5192V42.4745C32.1457 40.8628 30.8026 39.5645 29.1462 38.7586H29.1014C27.042 37.7737 25.8333 35.7144 25.9228 33.5207V33.4759C26.0124 31.6404 25.5199 29.8496 24.4902 28.3275C23.1919 26.5815 23.1919 24.2088 24.4455 22.3732Z" fill="#CA0100"/>
<path id="Vector_2" d="M47.724 32.9388C47.9478 33.0732 48.1717 33.1627 48.4403 33.1627C48.9327 33.1627 49.3357 32.9388 49.6043 32.5359L60.304 15.4342C60.5726 15.0313 60.5726 14.4941 60.3488 14.0464C60.125 13.5987 59.6773 13.3301 59.1848 13.3301H59.14C58.6476 13.3301 58.2447 13.5987 57.976 13.9568L47.2763 31.0586C46.9181 31.6853 47.0972 32.5359 47.724 32.9388Z" fill="#262626"/>
<path id="Vector_3" d="M48.9321 23.7157C51.3944 23.7157 53.3642 21.4773 53.3642 18.7016C53.3642 15.9259 51.3496 13.6875 48.9321 13.6875C46.4698 13.6875 44.5 15.9259 44.5 18.7016C44.5 21.4773 46.5146 23.7157 48.9321 23.7157ZM48.9321 16.4632C49.8723 16.4632 50.6333 17.4929 50.6333 18.7464C50.6333 19.9999 49.8723 21.0296 48.9321 21.0296C47.992 21.0296 47.2309 19.9999 47.2309 18.7464C47.2309 17.4929 47.992 16.4632 48.9321 16.4632Z" fill="#262626"/>
<path id="Vector_4" d="M54.2188 27.7446C54.2188 30.5203 56.2333 32.7587 58.6509 32.7587C61.1132 32.7587 63.083 30.5203 63.083 27.7446C63.083 24.9689 61.0684 22.7305 58.6509 22.7305C56.2333 22.7305 54.2188 24.9689 54.2188 27.7446ZM58.6956 30.0278C57.7555 30.0278 56.9944 28.9981 56.9944 27.7446C56.9944 26.4911 57.7555 25.4614 58.6956 25.4614C59.6358 25.4614 60.3969 26.4911 60.3969 27.7446C60.3969 28.9981 59.6358 30.0278 58.6956 30.0278Z" fill="#262626"/>
<path id="Vector_5" d="M77.4949 56.6225C75.5699 53.2201 71.3168 51.9218 67.8696 53.6678L56.5431 59.04C54.9762 56.13 51.9767 54.2945 48.6638 54.205L38.1878 53.9364C36.5314 53.8916 34.9197 53.4887 33.4423 52.7276L32.3679 52.1904C26.9061 49.37 20.4146 49.37 14.9976 52.1904L15.0423 49.7729C15.0423 48.967 14.4156 48.2955 13.6545 48.2955L2.19367 47.8926C1.38784 47.8926 0.716302 48.5193 0.716302 49.2804L0 74.4853C0 75.2911 0.626764 75.9627 1.38783 75.9627L12.8487 76.276H12.8934C13.6545 76.276 14.326 75.6493 14.326 74.8882L14.3708 73.6795L17.3703 72.0678C18.5343 71.441 19.9221 71.3067 21.1757 71.6649L38.9489 76.6342C38.9937 76.6342 38.9937 76.6342 39.0385 76.679C40.3368 76.9476 41.635 77.0819 42.9333 77.0819C45.709 77.0819 48.4847 76.4999 50.9917 75.3359C51.0365 75.2911 51.126 75.2911 51.1708 75.2464L76.9577 58.5476C77.6292 58.1447 77.8531 57.294 77.4949 56.6225ZM11.5056 73.3661L2.90998 73.1422L3.53674 50.8921L12.1324 51.1159L11.5056 73.3661ZM49.7382 72.7393C46.6044 74.1719 43.0676 74.5301 39.71 73.8585L21.9815 68.8892C19.9669 68.3072 17.8628 68.5758 16.0273 69.5607L14.5051 70.3666L14.908 55.5481C19.7431 52.3247 25.9212 52.0113 31.0696 54.6974L32.1441 55.2347C34.0243 56.1748 36.0389 56.712 38.1431 56.8016L48.619 57.0702C51.5737 57.1597 54.036 59.2639 54.6628 62.1291L39.0832 61.6814C38.2774 61.6814 37.6059 62.3082 37.6059 63.0692C37.6059 63.8303 38.2326 64.5466 38.9937 64.5466L56.1849 65.0391H56.2297C56.9908 65.0391 57.6623 64.4123 57.6623 63.6512C57.6623 63.0245 57.6175 62.3977 57.528 61.7709L69.1231 56.2644H69.1679C70.8243 55.4137 72.7942 55.7271 74.182 56.9807L49.7382 72.7393Z" fill="#262626"/>
<path id="Vector_6" d="M36.219 33.6539C40.3825 33.6539 42.7552 30.1171 42.7552 23.9838C42.7552 21.1186 42.218 18.8354 41.1883 17.2237C40.1139 15.5673 38.5022 14.6719 36.5323 14.6719C34.6073 14.6719 32.9508 15.5673 31.7868 17.2237C30.6229 18.8801 29.9961 21.2977 29.9961 24.2076C30.0409 30.0276 32.4584 33.6539 36.219 33.6539ZM36.398 17.4475C39.0842 17.4475 39.4871 21.6111 39.4871 24.1181C39.4871 26.6699 39.0842 30.923 36.398 30.923C34.5178 30.923 33.309 28.3712 33.309 24.2524C33.2642 20.0889 34.5178 17.4475 36.398 17.4475Z" fill="#262626"/>
</g>
</svg>
