<svg width="76" height="76" viewBox="0 0 76 76" fill="none" xmlns="http://www.w3.org/2000/svg">
<g id="Group">
<g id="Group_2">
<g id="Group_3">
<path id="Vector" d="M61.4677 66.0778L58.6472 57.5717C57.6623 54.617 55.1105 52.4233 52.0662 51.8413L43.8735 50.3639V49.7372C45.3061 48.9313 46.5149 47.8121 47.4998 46.5138H49.9621C51.9767 46.5138 53.6331 44.8574 53.6331 42.8428V28.1586C53.6331 19.3839 46.5149 12.2656 37.7402 12.2656C28.9655 12.2656 21.8472 19.3839 21.8472 28.1586V36.7094C21.8472 39.0822 23.5037 41.052 25.7421 41.4997C26.4136 45.0364 28.6073 47.9912 31.6516 49.7372V50.3639L23.4589 51.8413C20.3698 52.4233 17.8628 54.5722 16.8779 57.5717L16.3854 59.0491L12.2219 54.8856C11.7294 54.3931 11.7294 53.6321 12.2219 53.1396L17.0569 48.3046L7.96886 39.2613L2.50706 44.7231C0.895378 46.3347 0 48.4836 0 50.7669C0 53.0501 0.895378 55.199 2.50706 56.8107L19.0268 73.3304C20.6385 74.9421 22.7874 75.8374 25.0706 75.8374C27.3538 75.8374 29.5027 74.942 31.0696 73.3751L37.0239 67.9133L35.1436 66.0778H61.4677ZM51.2156 42.8428C51.2156 43.5143 50.6784 44.0515 50.0068 44.0515H48.9771C49.3353 43.2457 49.6039 42.3951 49.783 41.4997C50.3202 41.4102 50.7679 41.1863 51.2604 40.9177V42.8428H51.2156ZM50.0068 38.8136V34.6053C50.7231 35.0082 51.2156 35.8141 51.2156 36.7094C51.2156 37.6048 50.7231 38.4106 50.0068 38.8136ZM25.5183 38.8136C24.802 38.4106 24.3095 37.6048 24.3095 36.7094C24.3095 35.8141 24.802 35.0082 25.5183 34.6053V38.8136ZM25.5183 30.5761V31.9639C25.0706 32.0982 24.6677 32.2325 24.3095 32.4564V28.1138C24.3095 20.6822 30.3533 14.6384 37.7849 14.6384C45.2166 14.6384 51.2604 20.6822 51.2604 28.1138V32.4564C50.9022 32.2325 50.4545 32.0535 50.0516 31.9639V30.5761H48.7981C45.1718 30.5761 41.7694 29.1883 39.2175 26.5917L37.7849 25.1591L36.3523 26.5917C33.8005 29.1435 30.3981 30.5761 26.7718 30.5761H25.5183ZM27.9805 39.1717V32.9936C31.6516 32.725 35.0988 31.2029 37.7849 28.651C40.4711 31.2029 43.9183 32.725 47.5893 32.9936V39.1717C47.5893 40.9625 47.0969 42.6189 46.2463 44.0515H37.7849V46.5138H44.2317C42.4857 48.036 40.2472 48.9761 37.7849 48.9761C32.3679 48.9313 27.9805 44.544 27.9805 39.1717ZM41.456 50.8564V50.9012L37.7849 54.5722L34.1139 50.9012V50.8564C35.2779 51.2145 36.4866 51.4384 37.7849 51.4384C39.0385 51.3936 40.292 51.2145 41.456 50.8564ZM19.2058 58.3776C19.9221 56.2734 21.7129 54.7065 23.9066 54.3036L32.4574 52.7367L37.7849 58.0642L43.1124 52.7367L51.6633 54.3036C53.857 54.7065 55.6477 56.2734 56.364 58.3776L58.11 63.6603H32.7708L28.0253 58.9148L22.7426 63.7051C22.2949 64.1527 21.4891 64.1527 20.9966 63.7051L18.3105 61.0189L19.2058 58.3776ZM7.96886 42.7085L13.565 48.3046L12.2219 49.6476L6.62579 44.0515L7.96886 42.7085ZM29.4132 71.6292C28.2492 72.7931 26.727 73.4199 25.0706 73.4199C23.4589 73.4199 21.892 72.7931 20.728 71.6292L4.25304 55.1094C3.08905 53.9454 2.46229 52.4233 2.46229 50.7669C2.46229 49.1104 3.08905 47.5883 4.25304 46.4243L4.92458 45.7527L10.5207 51.3489L10.4759 51.3936C9.04331 52.8262 9.04331 55.1542 10.4759 56.5868L19.2506 65.4063C19.9221 66.0778 20.8623 66.4807 21.8472 66.4807C22.8321 66.4807 23.7723 66.0778 24.399 65.451L24.4886 65.3615L30.1295 71.0024L29.4132 71.6292ZM31.9202 69.3459L26.2793 63.7051L27.891 62.2277L33.4871 67.8238L31.9202 69.3459Z" fill="#262626"/>
</g>
</g>
<g id="Group_4">
<g id="Group_5">
<path id="Vector_2" d="M72.0324 0H54.8859C52.8713 0 51.2148 1.65645 51.2148 3.67105V13.4754C51.2148 15.49 52.8713 17.1465 54.8859 17.1465H58.154L56.9005 24.5333L68.7195 17.1465H72.0324C74.047 17.1465 75.7034 15.49 75.7034 13.4754V3.67105C75.7034 1.65645 74.047 0 72.0324 0ZM73.2411 13.4754C73.2411 14.147 72.7039 14.6842 72.0324 14.6842H68.0032L60.2134 19.5192L61.064 14.6842H54.8859C54.2144 14.6842 53.6771 14.147 53.6771 13.4754V3.67105C53.6771 2.99951 54.2144 2.46229 54.8859 2.46229H72.0324C72.7039 2.46229 73.2411 2.99951 73.2411 3.67105V13.4754Z" fill="#262626"/>
</g>
</g>
<g id="Group_6">
<g id="Group_7">
<path id="Vector_3" d="M70.8248 4.87891H56.1406V7.34119H70.8248V4.87891Z" fill="#CA0100"/>
</g>
</g>
<g id="Group_8">
<g id="Group_9">
<path id="Vector_4" d="M65.945 9.80469H56.1406V12.267H65.945V9.80469Z" fill="#CA0100"/>
</g>
</g>
<g id="Group_10">
<g id="Group_11">
<path id="Vector_5" d="M70.8256 9.80469H68.3633V12.267H70.8256V9.80469Z" fill="#CA0100"/>
</g>
</g>
<g id="Group_12">
<g id="Group_13">
<path id="Vector_6" d="M37.7849 3.66992C21.8024 3.66992 8.01363 14.7278 4.43212 30.1731L2.10414 26.323L0 27.5317L4.29781 34.6948L11.4608 30.3969L10.2073 28.2928L6.89441 30.2626C10.3416 16.1604 23.056 6.08744 37.7849 6.08744C41.0083 6.08744 44.1869 6.5799 47.2312 7.52005L47.9475 5.19206C44.6346 4.16238 41.2321 3.66992 37.7849 3.66992Z" fill="#CA0100"/>
</g>
</g>
<g id="Group_14">
<g id="Group_15">
<path id="Vector_7" d="M75.1248 27.0849L67.9618 22.7871L63.664 29.9501L65.7681 31.2037L67.917 27.6221C69.0363 30.935 69.6182 34.3822 69.6182 37.919C69.6182 45.2163 67.1112 52.3346 62.5 57.9307L64.3803 59.4528C69.3049 53.3643 72.0358 45.7088 72.0358 37.8742C72.0358 34.1136 71.4538 30.4874 70.245 26.9954L73.8265 29.1443L75.1248 27.0849Z" fill="#CA0100"/>
</g>
</g>
</g>
</svg>
