<svg width="64" height="77" viewBox="0 0 64 77" fill="none" xmlns="http://www.w3.org/2000/svg">
<g id="Frame" clip-path="url(#clip0_1_12117)">
<g id="Group">
<g id="Group_2">
<g id="Group_3">
<path id="Vector" d="M19.1326 55.2246H16.6979C16.0022 55.2246 15.4805 55.7472 15.4805 56.4441C15.4805 57.1409 16.0022 57.6635 16.6979 57.6635H19.1326C19.8283 57.6635 20.35 57.1409 20.35 56.4441C20.35 55.7472 20.0022 55.2246 19.1326 55.2246Z" fill="#CA0100"/>
</g>
</g>
<g id="Group_4">
<g id="Group_5">
<path id="Vector_2" d="M55.1328 55.2246H24.3502C23.6546 55.2246 23.1328 55.7472 23.1328 56.4441C23.1328 57.1409 23.6546 57.6635 24.3502 57.6635H55.1328C55.8285 57.6635 56.3502 57.1409 56.3502 56.4441C56.3502 55.7472 55.8285 55.2246 55.1328 55.2246Z" fill="#CA0100"/>
</g>
</g>
<g id="Group_6">
<g id="Group_7">
<path id="Vector_3" d="M19.1326 47.5586H16.6979C16.0022 47.5586 15.4805 48.0812 15.4805 48.7781C15.4805 49.4749 16.0022 49.9975 16.6979 49.9975H19.1326C19.8283 49.9975 20.35 49.4749 20.35 48.7781C20.35 48.0812 20.0022 47.5586 19.1326 47.5586Z" fill="#CA0100"/>
</g>
</g>
<g id="Group_8">
<g id="Group_9">
<path id="Vector_4" d="M55.1328 47.5586H24.3502C23.6546 47.5586 23.1328 48.0812 23.1328 48.7781C23.1328 49.4749 23.6546 49.9975 24.3502 49.9975H55.1328C55.8285 49.9975 56.3502 49.4749 56.3502 48.7781C56.3502 48.0812 55.8285 47.5586 55.1328 47.5586Z" fill="#CA0100"/>
</g>
</g>
<g id="Group_10">
<g id="Group_11">
<path id="Vector_5" d="M19.1326 39.7188H16.6979C16.0022 39.7188 15.4805 40.2414 15.4805 40.9382C15.4805 41.635 16.0022 42.1577 16.6979 42.1577H19.1326C19.8283 42.1577 20.35 41.635 20.35 40.9382C20.35 40.2414 20.0022 39.7188 19.1326 39.7188Z" fill="#CA0100"/>
</g>
</g>
<g id="Group_12">
<g id="Group_13">
<path id="Vector_6" d="M55.1328 39.7188H24.3502C23.6546 39.7188 23.1328 40.2414 23.1328 40.9382C23.1328 41.635 23.6546 42.1577 24.3502 42.1577H55.1328C55.8285 42.1577 56.3502 41.635 56.3502 40.9382C56.3502 40.2414 55.8285 39.7188 55.1328 39.7188Z" fill="#CA0100"/>
</g>
</g>
<g id="Group_14">
<g id="Group_15">
<path id="Vector_7" d="M19.1326 32.0547H16.6979C16.0022 32.0547 15.4805 32.5773 15.4805 33.2741C15.4805 33.971 16.0022 34.4936 16.6979 34.4936H19.1326C19.8283 34.4936 20.35 33.971 20.35 33.2741C20.35 32.5773 20.0022 32.0547 19.1326 32.0547Z" fill="#CA0100"/>
</g>
</g>
<g id="Group_16">
<g id="Group_17">
<path id="Vector_8" d="M55.1328 32.0547H24.3502C23.6546 32.0547 23.1328 32.5773 23.1328 33.2741C23.1328 33.971 23.6546 34.4936 24.3502 34.4936H55.1328C55.8285 34.4936 56.3502 33.971 56.3502 33.2741C56.3502 32.5773 55.8285 32.0547 55.1328 32.0547Z" fill="#CA0100"/>
</g>
</g>
<g id="Group_18">
<g id="Group_19">
<path id="Vector_9" d="M19.1326 24.3887H16.6979C16.0022 24.3887 15.4805 24.9113 15.4805 25.6081C15.4805 26.305 16.0022 26.8276 16.6979 26.8276H19.1326C19.8283 26.8276 20.35 26.305 20.35 25.6081C20.35 24.9113 20.0022 24.3887 19.1326 24.3887Z" fill="#CA0100"/>
</g>
</g>
<g id="Group_20">
<g id="Group_21">
<path id="Vector_10" d="M55.1328 24.3887H24.3502C23.6546 24.3887 23.1328 24.9113 23.1328 25.6081C23.1328 26.305 23.6546 26.8276 24.3502 26.8276H55.1328C55.8285 26.8276 56.3502 26.305 56.3502 25.6081C56.3502 24.9113 55.8285 24.3887 55.1328 24.3887Z" fill="#CA0100"/>
</g>
</g>
<g id="Group_22">
<g id="Group_23">
<path id="Vector_11" d="M64 19.1631C64 18.9889 64 18.9889 64 18.8147C64 18.8147 64 18.8147 64 18.6405C64 18.4662 63.8261 18.292 63.8261 18.292L45.7391 0.348597C45.5652 0.174389 45.5652 0.174389 45.3913 0.174389C45.3913 0.174389 45.3913 0.174389 45.2174 0.174389C45.0435 0.174389 45.0435 0.174389 44.8696 0.174389H9.04348C8.17391 0.000180975 7.65217 0.522805 7.65217 1.21964V5.05222H1.21739C0.521739 5.05222 0 5.74905 0 6.44588V75.7807C0 76.4776 0.521739 77.0002 1.21739 77.0002H54.9565C55.6522 77.0002 56.1739 76.4776 56.1739 75.7807V69.335H62.6087C63.3044 69.335 63.8261 68.8124 63.8261 68.1156L64 19.1631ZM46.087 4.35538L59.6522 17.9436H46.087V4.35538ZM53.7391 74.3871H2.6087V7.66534H7.65217V67.9414C7.65217 68.6382 8.17391 69.1608 8.86957 69.1608H53.7391V74.3871ZM61.5652 66.7219H10.2609V2.6133H43.4783V19.1631C43.4783 19.8599 44 20.3825 44.6957 20.3825H61.3913V66.7219H61.5652Z" fill="#262626"/>
</g>
</g>
<g id="Group_24">
<g id="Group_25">
<path id="Vector_12" d="M24.3482 11.498H16.696C16.0003 11.498 15.3047 12.1949 15.3047 12.8917V20.5569C15.3047 21.2537 15.8264 21.7763 16.5221 21.7763H24.3482C25.0438 21.7763 25.5656 21.2537 25.5656 20.5569V12.8917C25.5656 12.1949 25.0438 11.498 24.3482 11.498ZM23.1308 19.1632H18.0873V14.1112H23.1308V19.1632Z" fill="#262626"/>
</g>
</g>
</g>
</g>
<defs>
<clipPath id="clip0_1_12117">
<rect width="64" height="77" fill="white"/>
</clipPath>
</defs>
</svg>
