<svg width="84" height="74" viewBox="0 0 84 74" fill="none" xmlns="http://www.w3.org/2000/svg">
<g id="Frame" clip-path="url(#clip0_1_12188)">
<g id="Group">
<g id="Group_2">
<path id="Vector" d="M46.3025 36.8315C46.7887 36.3464 46.7887 35.5814 46.3025 35.0963C45.8163 34.6111 45.0496 34.6111 44.5634 35.0963C43.1423 36.5143 40.8609 36.5143 39.4397 35.0963C38.9535 34.6111 38.1868 34.6111 37.7006 35.0963C37.2144 35.5814 37.2144 36.3464 37.7006 36.8315C38.8787 38.007 40.4495 38.6041 42.0016 38.6041C43.5537 38.6041 45.1244 38.007 46.3025 36.8315Z" fill="#CA0100"/>
<path id="Vector_2" d="M81.943 66.2929H78.764V59.5012C78.764 57.9152 77.4737 56.6278 75.8842 56.6278H65.3001V48.8844C65.3001 48.2127 64.7578 47.653 64.0659 47.653C63.374 47.653 62.8317 48.1941 62.8317 48.8844V56.6278H50.7329V45.8991H59.1478C60.8682 45.8991 62.3455 47.0559 62.7382 48.7352C62.8878 49.3882 63.561 49.7987 64.2155 49.6494C64.87 49.5002 65.2814 48.8285 65.1318 48.1754C64.4773 45.3953 62.0089 43.4548 59.1478 43.4548H50.7329V41.9061C52.8085 40.4321 54.3045 38.2117 54.8281 35.6555H56.3054C58.7925 35.6555 60.8121 33.6404 60.8121 31.1588V28.8451C60.8121 27.483 60.2137 26.2702 59.2413 25.4492V20.3368C59.2413 18.3963 58.8299 16.5118 58.0258 14.7579C57.7453 14.1421 57.016 13.8623 56.3989 14.1421C55.7818 14.422 55.5013 15.1497 55.7818 15.7654C56.4363 17.2021 56.7729 18.7508 56.7729 20.3368V24.367C56.6046 24.3484 56.455 24.3484 56.2867 24.3484H55.0151V22.6505C55.0151 20.3741 53.463 18.415 51.2565 17.8739C50.5459 17.7059 49.7605 17.7619 49.0686 18.0604L41.4577 21.2137C41.1024 21.363 40.7284 21.4376 40.3544 21.4376H32.5752C30.7987 21.4376 29.3215 22.6878 28.9662 24.3484H27.6759C27.5076 24.3484 27.358 24.367 27.1897 24.367V20.3368C27.1897 14.2354 32.1638 9.2909 38.26 9.2909H45.74C48.2645 9.2909 50.6394 10.1119 52.6215 11.6792C53.1451 12.1083 53.9305 12.0151 54.3419 11.474C54.772 10.9515 54.6785 10.1679 54.1362 9.75737C53.1825 8.99236 52.1353 8.37663 51.0321 7.91017C51.2752 7.25711 51.4248 6.56675 51.4248 5.8204C51.4248 2.61112 48.8068 0.0175781 45.6091 0.0175781H38.3909C35.1745 0.0175781 32.5752 2.62978 32.5752 5.8204C32.5752 6.54809 32.7061 7.25711 32.9679 7.91017C28.1247 9.98127 24.74 14.7579 24.74 20.3368V25.4492C23.7863 26.2702 23.1692 27.5017 23.1692 28.8451V31.1588C23.1692 33.6404 25.1888 35.6555 27.6759 35.6555H29.1532C29.6955 38.2304 31.1915 40.4321 33.2484 41.9061V43.4548H24.8335C21.4488 43.4548 18.6812 46.2163 18.6812 49.5935V59.3333L11.3508 46.6454C10.9207 45.8804 10.2102 45.3393 9.34995 45.1154C8.50846 44.8915 7.61086 45.0035 6.86287 45.4513C5.29207 46.3469 4.74978 48.362 5.66607 49.9293L12.6972 62.0761C11.5004 63.1956 10.6215 64.651 10.2476 66.2929H2.05699C0.934995 66.2929 0 67.2072 0 68.3454V71.9465C0 73.066 0.916296 73.9989 2.05699 73.9989H45.5156C46.1888 73.9989 46.7498 73.4578 46.7498 72.7674C46.7498 72.0771 46.2075 71.536 45.5156 71.536H2.46839V68.7559H81.5316V71.536H36.9136C36.2404 71.536 35.6794 72.0771 35.6794 72.7674C35.6794 73.4578 36.2217 73.9989 36.9136 73.9989H81.943C83.065 73.9989 84 73.0846 84 71.9465V68.3454C84 67.2258 83.0837 66.2929 81.943 66.2929ZM55.0712 26.7927H56.3428C57.4648 26.7927 58.3998 27.7069 58.3998 28.8451V31.1588C58.3998 32.2783 57.4835 33.2112 56.3428 33.2112H55.0712V26.7927ZM38.3909 2.46185H45.6091C47.4604 2.46185 48.9751 3.9732 48.9751 5.8204C48.9751 6.28687 48.8816 6.73467 48.6946 7.14516C47.7409 6.93992 46.7498 6.82797 45.74 6.82797H38.26C37.2502 6.82797 36.2591 6.93992 35.3054 7.16382C35.1184 6.75333 35.0249 6.30553 35.0249 5.83906C35.0249 3.95454 36.5396 2.46185 38.3909 2.46185ZM28.9288 33.1926H27.6759C26.5539 33.1926 25.6189 32.2783 25.6189 31.1401V28.8265C25.6189 27.7069 26.5352 26.774 27.6759 26.774H28.9475V33.1926H28.9288ZM7.79786 48.6979C7.68566 48.5113 7.66696 48.2874 7.72306 48.0821C7.77916 47.8769 7.91006 47.6903 8.09706 47.5783C8.22796 47.5037 8.35886 47.4664 8.50846 47.4664C8.58326 47.4664 8.65806 47.4851 8.71416 47.5037C8.91986 47.5597 9.10686 47.6903 9.21906 47.8769L9.66785 48.6419L8.24666 49.4629L7.79786 48.6979ZM9.48085 51.6086L10.902 50.7876L16.2876 60.0983C15.7453 60.2475 15.2217 60.4341 14.7355 60.6767L9.48085 51.6086ZM12.7907 66.2929C13.5761 63.9606 15.7827 62.2813 18.382 62.2813C20.9813 62.2813 23.1879 63.9606 23.9733 66.2929H12.7907ZM33.2484 66.2929H26.5352C25.8807 63.4941 23.8237 61.2364 21.1496 60.2848V49.5748C21.1496 47.541 22.8139 45.8991 24.8335 45.8991H33.2484V66.2929ZM31.3971 33.5657V25.0947C31.3971 24.423 31.9581 23.8633 32.6313 23.8633H40.4105C41.1211 23.8633 41.7943 23.7327 42.4488 23.4528L50.0597 20.2995C50.2841 20.2062 50.5085 20.1875 50.7142 20.2435C51.8175 20.5047 52.5841 21.4936 52.5841 22.6318V33.5471C52.5841 37.8386 49.0873 41.3277 44.7863 41.3277H39.1576C34.894 41.3464 31.3971 37.8572 31.3971 33.5657ZM48.2832 43.1936V48.5859L45.3847 46.2909L46.3758 43.6787C47.049 43.5667 47.6848 43.3988 48.2832 43.1936ZM43.7017 43.7906L42 48.2687L40.2983 43.7906H43.7017ZM38.6153 46.2909L35.7168 48.5859V44.6863V43.1936C36.3339 43.4175 36.951 43.5667 37.6055 43.6787L38.6153 46.2909ZM43.6643 59.5012V66.2929H35.7168V51.7019L39.5316 48.6792L40.0926 50.1346C40.3918 50.9369 41.1585 51.4593 42 51.4593C42.8415 51.4593 43.6082 50.9369 43.9261 50.1346L44.4871 48.6792L48.3019 51.7019V56.6278H46.5441C44.9546 56.6464 43.6643 57.9339 43.6643 59.5012ZM76.3143 66.2929H46.114V59.5012C46.114 59.2773 46.301 59.0907 46.5254 59.0907H75.8842C76.1086 59.0907 76.2956 59.2773 76.2956 59.5012V66.2929H76.3143Z" fill="#262626"/>
<path id="Vector_3" d="M69.5839 61.4805H52.8475C52.1743 61.4805 51.6133 62.0216 51.6133 62.7119C51.6133 63.3836 52.1556 63.9434 52.8475 63.9434H69.5839C70.2571 63.9434 70.8181 63.4023 70.8181 62.7119C70.8181 62.0216 70.2571 61.4805 69.5839 61.4805Z" fill="#CA0100"/>
<path id="Vector_4" d="M23.4844 56.7959C23.4844 57.4676 24.0267 58.0274 24.7186 58.0274H29.7114C30.3846 58.0274 30.9456 57.4863 30.9456 56.7959C30.9456 56.1242 30.4033 55.5645 29.7114 55.5645H24.7186C24.0267 55.5831 23.4844 56.1242 23.4844 56.7959Z" fill="#CA0100"/>
</g>
</g>
</g>
<defs>
<clipPath id="clip0_1_12188">
<rect width="84" height="74" fill="white"/>
</clipPath>
</defs>
</svg>
