<svg width="76" height="76" viewBox="0 0 76 76" fill="none" xmlns="http://www.w3.org/2000/svg">
<g id="tire 2">
<g id="Group">
<g id="Group_2">
<g id="Group_3">
<path id="Vector" d="M73.4684 37.7466C73.4677 37.62 73.4644 37.4943 73.4628 37.368C73.4608 37.195 73.4587 37.0222 73.455 36.8499C73.4541 36.8073 73.4527 36.7649 73.4516 36.7222C73.2098 26.3536 70.0392 17.0037 65.078 10.333C60.6677 4.37178 54.8411 0.527992 48.3884 0C48.2618 0 48.2618 0 48.135 0C48.0445 0.00801563 47.9547 0.0197422 47.8644 0.0293906C47.5338 0.011875 47.2021 0 46.8684 0H29.1352C22.5471 0 16.5202 3.43959 11.8745 9.11629C11.7424 9.22925 11.6332 9.36507 11.5508 9.51855C6.02284 16.4953 2.53516 26.6904 2.53516 38C2.53516 58.9 14.4418 76 29.1352 76H46.8685C47.2298 76 47.5888 75.9866 47.9465 75.9662C48.0516 75.9776 48.1564 75.9906 48.2618 76C60.4218 74.9866 70.5552 62.5734 72.9618 45.4734C72.9757 45.3411 72.9894 45.2071 73.0033 45.0739C73.3075 42.7801 73.4684 40.416 73.4684 38V37.7466ZM31.5744 57.9429C31.5476 57.7958 31.4913 57.6573 31.4097 57.5342C29.1651 51.9277 27.8684 45.2145 27.8684 38.0001C27.8684 19.2998 36.6981 3.95957 47.9493 2.57094C60.7467 3.40783 70.9352 19.0248 70.9352 38C70.9352 56.9764 60.7455 72.5941 47.9471 73.4294C41.0685 72.5899 35.1654 66.6477 31.5744 57.9429ZM6.64465 50.6145C6.92148 50.528 7.19832 50.3445 7.47516 50.16L9.12177 47.6266L11.7818 50.2866C12.2884 50.7932 13.0484 50.7932 13.5552 50.2866L16.4685 47.3732L19.5085 50.4132C20.0152 50.9199 20.7752 50.9199 21.2819 50.4132L24.3219 47.3732L26.4035 49.2357C26.8451 51.4955 27.4163 53.6659 28.1051 55.7248L25.8421 54.5932C25.2087 54.2132 24.5755 54.4666 24.1955 54.9732L22.5488 57.5066L19.8888 54.8466C19.3822 54.34 18.6222 54.34 18.1155 54.8466L15.2018 57.76L12.2884 54.8466C11.7818 54.34 11.0218 54.34 10.515 54.8466L8.68626 56.6754C7.88113 54.7671 7.1955 52.7393 6.64465 50.6145ZM5.07388 38.6234L8.23516 40.4068C8.74177 40.6601 9.37516 40.5334 9.75516 40.1534L12.6685 37.24L15.7085 40.1534C16.2152 40.66 16.9752 40.66 17.4819 40.1534L20.5219 37.1134L25.3703 40.045C25.4313 41.8666 25.5724 43.655 25.7898 45.4002L24.8285 44.5868C24.3219 44.2068 23.5619 44.3334 23.1819 44.7134L20.2685 47.6268L17.3552 44.7134C16.8485 44.2068 16.0885 44.2068 15.5818 44.7134L12.6684 47.6268L9.75501 44.7134C9.50163 44.46 9.12163 44.3334 8.74163 44.3334C8.36163 44.3334 7.98163 44.5868 7.72824 44.84L5.94892 47.5089C5.41217 44.6715 5.10995 41.6934 5.07388 38.6234ZM9.21158 18.131L12.035 20.0134C12.415 20.2668 13.0484 20.2668 13.4284 20.0134L16.4684 17.9868L19.635 20.1401C20.015 20.3935 20.6484 20.3935 21.0284 20.1401L24.195 17.9868L28.2312 19.9472C27.5651 21.8877 27.0031 23.9277 26.5568 26.0487L24.9549 24.4468C24.4482 23.9401 23.6882 23.9401 23.1815 24.4468L20.2681 27.3601L17.3547 24.4468C16.8481 23.9401 16.0881 23.9401 15.5813 24.4468L12.6684 27.36L9.75501 24.4466C9.50163 24.1932 9.24839 24.0666 8.86839 24.0666C8.48839 24.0666 8.23501 24.1932 7.98177 24.4466L6.49205 25.9878C7.17769 23.1908 8.09533 20.5546 9.21158 18.131ZM13.2902 11.3293L21.2818 8.99338L24.5752 11.1468C24.9552 11.4001 25.5885 11.4001 25.9685 11.1468L29.1352 8.99338L32.6681 10.7095C31.3095 12.7901 30.1068 15.119 29.0883 17.6467L24.4485 15.3268C24.0685 15.2001 23.5619 15.2001 23.1819 15.4534L20.1419 17.48L17.1019 15.4534C16.7219 15.2 16.0885 15.2 15.7085 15.4534L12.6685 17.48L10.3591 15.8442C11.2452 14.2163 12.226 12.7048 13.2902 11.3293ZM20.9018 34.4534C20.3952 34.2 19.7618 34.3268 19.3818 34.7068L16.4684 37.6201L13.555 34.7068C13.0484 34.2001 12.2884 34.2001 11.7816 34.7068L8.61501 37.8734L5.11366 35.8575C5.19085 33.9632 5.36927 32.1082 5.64166 30.3037C5.79885 30.2403 5.9559 30.1459 6.08177 30.0201L8.86839 27.1068L11.7818 30.02C12.2884 30.5266 13.0484 30.5266 13.5552 30.02L16.4685 27.1066L19.3819 30.02C19.8885 30.5266 20.6485 30.5266 21.1553 30.02L24.0687 27.1066L25.7153 28.7532C25.8097 28.8476 25.913 28.9244 26.0217 28.9836C25.616 31.6032 25.3828 34.3251 25.3421 37.1174L20.9018 34.4534ZM40.7256 2.53338C38.2981 4.02562 36.0659 6.11755 34.0977 8.68805L29.6418 6.46C29.2618 6.33338 28.7552 6.33338 28.3752 6.58662L25.3352 8.61323L22.2952 6.58662C21.9152 6.33323 21.5352 6.33323 21.1552 6.33323L16.7657 7.58738C20.3797 4.38188 24.6105 2.53323 29.1352 2.53323H40.7256V2.53338ZM9.80607 59.1023L11.4018 57.5066L14.3152 60.42C14.8218 60.9266 15.5818 60.9266 16.0885 60.42L19.0018 57.5066L21.9152 60.42C22.1685 60.6734 22.4218 60.8 22.8018 60.8C23.3084 60.8 23.6884 60.5466 23.8152 60.1666L25.7152 57.2532L29.3735 59.0824C30.3262 61.3319 31.4278 63.4131 32.6583 65.2911L30.275 66.88L27.235 64.8534C26.855 64.6 26.2216 64.6 25.8416 64.8534L22.8018 66.88L19.7618 64.8534C19.3818 64.6 18.7484 64.6 18.3684 64.8534L15.2381 66.9403C13.1591 64.7648 11.3244 62.1157 9.80607 59.1023ZM29.1352 73.4666C24.7359 73.4666 20.6144 71.7192 17.0675 68.6762L19.0018 67.3866L22.1684 69.4132C22.5484 69.6666 23.1818 69.6666 23.5618 69.4132L26.6018 67.3866L29.5152 69.54C29.8952 69.7934 30.5285 69.7934 30.9085 69.54L34.1467 67.3813C36.1128 69.9222 38.3426 71.9889 40.7695 73.4668H29.1352V73.4666Z" fill="#262626"/>
<path id="Vector_2" d="M49.4033 10.1328C42.8452 10.1328 37.3472 17.4707 35.1864 27.9944C35.1736 28.0562 35.1608 28.1181 35.1484 28.18C35.0905 28.4684 35.0347 28.7588 34.9817 29.0516C34.9636 29.152 34.9465 29.2529 34.929 29.3535C34.8932 29.5594 34.8588 29.7663 34.8255 29.9743C34.8033 30.1131 34.7811 30.2519 34.7602 30.3914C34.7252 30.6237 34.6919 30.8575 34.6602 31.0925C34.641 31.2339 34.6225 31.3757 34.6045 31.5176C34.5778 31.7288 34.5525 31.9412 34.5284 32.1546C34.5089 32.3266 34.4905 32.4991 34.4728 32.672C34.4529 32.866 34.4339 33.0608 34.4163 33.2564C34.4047 33.3839 34.393 33.5114 34.3823 33.6394C34.3588 33.9219 34.3376 34.2058 34.3188 34.4913C34.3118 34.5975 34.3057 34.7043 34.2993 34.8108C34.2842 35.0624 34.2708 35.3152 34.2592 35.5691C34.256 35.6428 34.2518 35.7162 34.2488 35.7901C34.2356 36.1077 34.2261 36.4275 34.2187 36.7484C34.2168 36.8306 34.2153 36.9127 34.2137 36.9951C34.2074 37.3285 34.2031 37.6631 34.2031 37.9996C34.2031 38.3362 34.2074 38.6707 34.2137 39.0041C34.2151 39.0863 34.2168 39.1685 34.2187 39.2508C34.2261 39.5717 34.2358 39.8913 34.2488 40.2091C34.2518 40.2828 34.256 40.3563 34.2592 40.4301C34.2708 40.6839 34.2842 40.9366 34.2993 41.1882C34.3057 41.2947 34.3118 41.4015 34.3188 41.5079C34.3378 41.7933 34.3588 42.0773 34.3823 42.3598C34.3928 42.4877 34.4047 42.6152 34.4163 42.7429C34.4341 42.9384 34.4529 43.133 34.4728 43.327C34.4905 43.4999 34.5089 43.6726 34.5284 43.8447C34.5525 44.0579 34.5778 44.2703 34.6045 44.4815C34.6225 44.6236 34.641 44.7652 34.6602 44.9067C34.6919 45.1415 34.7252 45.3751 34.7602 45.6073C34.7813 45.747 34.8034 45.8859 34.8257 46.0249C34.8589 46.2328 34.8934 46.4396 34.929 46.6453C34.9465 46.7461 34.9636 46.847 34.9817 46.9474C35.0345 47.2403 35.0903 47.5306 35.1482 47.8189C35.1607 47.8809 35.1735 47.9428 35.1862 48.0047C37.3469 58.5285 42.845 65.8662 49.4031 65.8662C57.8898 65.8662 64.6031 53.5796 64.6031 37.9996C64.6031 22.4196 57.8899 10.1328 49.4033 10.1328ZM36.9053 42.0056C36.8988 41.9274 36.8915 41.8495 36.8852 41.7711C36.876 41.6549 36.8682 41.538 36.8597 41.4214C36.848 41.257 36.8369 41.0926 36.8269 40.9275C36.8213 40.8343 36.8153 40.7411 36.8103 40.6477C36.7962 40.3903 36.7834 40.1323 36.7733 39.8732C36.7715 39.8261 36.7704 39.7786 36.7686 39.7315C36.7604 39.5027 36.7539 39.273 36.7488 39.0428C36.7472 38.9689 36.7457 38.8951 36.7444 38.821C36.7398 38.5479 36.7365 38.2743 36.7365 37.9996C36.7365 37.7603 36.7393 37.5216 36.7423 37.2831C36.8127 32.5583 37.5756 28.0989 38.8293 24.3067C40.6894 27.48 41.8033 32.4917 41.8033 37.9994C41.8033 43.5072 40.6894 48.5189 38.8295 51.6923C37.8712 48.7935 37.1998 45.5049 36.9053 42.0056ZM49.4033 63.3328C45.6776 63.3328 42.2529 59.8748 39.9062 54.5156C42.5891 51.2188 44.3365 44.9377 44.3365 37.9994C44.3365 31.0612 42.589 24.78 39.9062 21.4832C42.2527 16.124 45.6775 12.666 49.4033 12.666C56.2433 12.666 62.0699 24.3194 62.0699 37.9994C62.0699 51.6794 56.2433 63.3328 49.4033 63.3328Z" fill="#262626"/>
</g>
</g>
</g>
</g>
</svg>
