<svg width="21" height="21" viewBox="0 0 21 21" fill="none" xmlns="http://www.w3.org/2000/svg">
<g id="Group 3645">
<circle id="Ellipse 220" cx="10.5" cy="10.5" r="10.5" fill="#CA0100"/>
<g id="Group 3520">
<g id="Group">
<g id="Group_2">
<path id="Vector" d="M5.85938 10.8164V14.5078C5.85938 14.8474 6.13562 15.123 6.47461 15.123H9.55078V10.8164H5.85938Z" fill="white"/>
</g>
</g>
<g id="Group_3">
<g id="Group_4">
<path id="Vector_2" d="M14.4785 8.35534H12.5319C12.6716 8.25998 12.7915 8.16524 12.8752 8.08033C13.3717 7.58138 13.3717 6.76927 12.8752 6.27032C12.3929 5.78428 11.5525 5.78551 11.0707 6.27032C10.8037 6.53794 10.0962 7.62752 10.194 8.35534H10.1497C10.2469 7.62752 9.53941 6.53794 9.27302 6.27032C8.79067 5.78551 7.95026 5.78551 7.46854 6.27032C6.97266 6.76927 6.97266 7.58138 7.46792 8.08033C7.55221 8.16524 7.67218 8.25998 7.81184 8.35534H5.86523C5.52624 8.35534 5.25 8.63158 5.25 8.97058V9.89343C5.25 10.0632 5.38781 10.201 5.55762 10.201H9.55664V8.97058H10.7871V10.201H14.7861C14.9559 10.201 15.0938 10.0632 15.0938 9.89343V8.97058C15.0938 8.63158 14.8181 8.35534 14.4785 8.35534ZM9.52034 8.33504C9.52034 8.33504 9.4945 8.35534 9.40652 8.35534C8.9814 8.35534 8.1699 7.91361 7.90474 7.64659C7.64695 7.38697 7.64695 6.96368 7.90474 6.70406C8.02963 6.57855 8.19513 6.50964 8.37108 6.50964C8.54643 6.50964 8.71192 6.57855 8.83682 6.70406C9.25148 7.12118 9.66369 8.18677 9.52034 8.33504ZM10.9366 8.35534C10.8492 8.35534 10.8234 8.33566 10.8234 8.33504C10.6801 8.18677 11.0923 7.12118 11.5069 6.70406C11.7549 6.45365 12.1886 6.45242 12.439 6.70406C12.6974 6.96368 12.6974 7.38697 12.439 7.64659C12.1738 7.91361 11.3624 8.35534 10.9366 8.35534Z" fill="white"/>
</g>
</g>
<g id="Group_5">
<g id="Group_6">
<path id="Vector_3" d="M10.7812 10.8164V15.123H13.8574C14.197 15.123 14.4727 14.8474 14.4727 14.5078V10.8164H10.7812Z" fill="white"/>
</g>
</g>
</g>
</g>
</svg>
